<svg width="24" height="24" viewBox="0 0 24 24" fill="none" xmlns="http://www.w3.org/2000/svg">
<path d="M17.7666 2.98828H5.92222C3.10548 2.98828 0.814331 5.27943 0.814331 8.09617V15.1443C0.814331 17.9611 3.10548 20.2522 5.92222 20.2522H17.7666C20.5833 20.2522 22.8745 17.9611 22.8745 15.1443V8.09617C22.8745 5.27943 20.5833 2.98828 17.7666 2.98828ZM21.542 15.1436C21.542 17.2252 19.8482 18.919 17.7666 18.919H5.92222C3.84057 18.919 2.14682 17.2252 2.14682 15.1436V8.09543C2.14682 6.01378 3.84057 4.32003 5.92222 4.32003H17.7666C19.8482 4.32003 21.542 6.01378 21.542 8.09543V15.1436Z" fill="#3A3D3B"/>
<path d="M18.6254 7.68425L12.2797 10.2189C11.9992 10.3307 11.6905 10.3307 11.4099 10.2189L5.06355 7.68425C4.72081 7.54804 4.33438 7.7146 4.19743 8.05587C4.06122 8.39787 4.22778 8.78504 4.56905 8.92199L10.9154 11.4567C11.2152 11.5766 11.5298 11.6358 11.8445 11.6358C12.1591 11.6358 12.4744 11.5759 12.7742 11.4567L19.1199 8.92199C19.4611 8.78504 19.6277 8.39787 19.4915 8.05587C19.3553 7.7146 18.9681 7.54804 18.6254 7.68425Z" fill="#3A3D3B"/>
</svg>
