<svg width="28" height="28" viewBox="0 0 28 28" fill="none" xmlns="http://www.w3.org/2000/svg">
<path d="M14 0C11.2311 0 8.52431 0.821086 6.22202 2.35943C3.91973 3.89776 2.12532 6.08427 1.06569 8.64243C0.00606596 11.2006 -0.271181 14.0155 0.269012 16.7313C0.809205 19.447 2.14258 21.9416 4.10051 23.8995C6.05844 25.8574 8.55301 27.1908 11.2687 27.731C13.9845 28.2712 16.7994 27.9939 19.3576 26.9343C21.9157 25.8747 24.1022 24.0803 25.6406 21.778C27.1789 19.4757 28 16.7689 28 14C28 10.287 26.525 6.72601 23.8995 4.1005C21.274 1.475 17.713 0 14 0ZM14 26C11.6266 26 9.30655 25.2962 7.33316 23.9776C5.35977 22.6591 3.8217 20.7849 2.91345 18.5922C2.0052 16.3995 1.76756 13.9867 2.23058 11.6589C2.69361 9.33114 3.83649 7.19295 5.51472 5.51472C7.19295 3.83649 9.33115 2.6936 11.6589 2.23058C13.9867 1.76755 16.3995 2.00519 18.5922 2.91344C20.7849 3.8217 22.6591 5.35977 23.9776 7.33316C25.2962 9.30655 26 11.6266 26 14C26 17.1826 24.7357 20.2348 22.4853 22.4853C20.2348 24.7357 17.1826 26 14 26ZM20 14C20 14.2652 19.8946 14.5196 19.7071 14.7071C19.5196 14.8946 19.2652 15 19 15H9C8.73479 15 8.48044 14.8946 8.2929 14.7071C8.10536 14.5196 8 14.2652 8 14C8 13.7348 8.10536 13.4804 8.2929 13.2929C8.48044 13.1054 8.73479 13 9 13H19C19.2652 13 19.5196 13.1054 19.7071 13.2929C19.8946 13.4804 20 13.7348 20 14ZM20 19C20 19.2652 19.8946 19.5196 19.7071 19.7071C19.5196 19.8946 19.2652 20 19 20H9C8.73479 20 8.48044 19.8946 8.2929 19.7071C8.10536 19.5196 8 19.2652 8 19C8 18.7348 8.10536 18.4804 8.2929 18.2929C8.48044 18.1054 8.73479 18 9 18H19C19.2652 18 19.5196 18.1054 19.7071 18.2929C19.8946 18.4804 20 18.7348 20 19ZM20 9C20 9.26521 19.8946 9.51957 19.7071 9.7071C19.5196 9.89464 19.2652 10 19 10H9C8.73479 10 8.48044 9.89464 8.2929 9.7071C8.10536 9.51957 8 9.26521 8 9C8 8.73478 8.10536 8.48043 8.2929 8.29289C8.48044 8.10536 8.73479 8 9 8H19C19.2652 8 19.5196 8.10536 19.7071 8.29289C19.8946 8.48043 20 8.73478 20 9Z" fill="white"/>
</svg>
