<svg width="24" height="24" viewBox="0 0 24 24" fill="none" xmlns="http://www.w3.org/2000/svg">
<path d="M17.3253 17.5682C17.0004 17.3939 16.5986 17.515 16.4244 17.837C16.2501 18.1604 16.3705 18.5629 16.6932 18.7379C17.2315 19.0281 17.552 19.3604 17.552 19.6263C17.552 20.3684 15.2635 21.4902 11.8148 21.4902C8.36618 21.4902 6.07766 20.3677 6.07766 19.6263C6.07766 19.3604 6.39889 19.0281 6.9365 18.7379C7.25921 18.5636 7.38032 18.1604 7.2053 17.837C7.03102 17.5143 6.6293 17.3939 6.30437 17.5682C5.01795 18.2623 4.74841 19.071 4.74841 19.6263C4.74841 21.7228 8.30267 22.8194 11.8141 22.8194C15.3255 22.8194 18.8798 21.7228 18.8798 19.6263C18.8813 19.071 18.6117 18.2623 17.3253 17.5682Z" fill="#3A3D3B"/>
<path d="M9.36827 18.5993C10.0661 19.2203 10.9405 19.5305 11.8156 19.5305C12.6906 19.5305 13.5657 19.2203 14.2628 18.5993C16.832 16.3122 19.8937 12.7883 19.8937 8.9881C19.8944 4.47974 16.27 0.8125 11.8156 0.8125C7.36111 0.8125 3.73669 4.47974 3.73669 8.9881C3.73669 12.7883 6.79913 16.3122 9.36827 18.5993ZM11.8156 2.14175C15.5374 2.14175 18.5652 5.21304 18.5652 8.9881C18.5652 12.47 15.3159 15.8817 13.3789 17.606C12.4876 18.3999 11.1435 18.3999 10.2522 17.606C8.31521 15.8825 5.06594 12.47 5.06594 8.9881C5.06594 5.21304 8.09367 2.14175 11.8156 2.14175Z" fill="#3A3D3B"/>
<path d="M11.8155 12.1166C13.596 12.1166 15.0441 10.6685 15.0441 8.88801C15.0441 7.10756 13.596 5.66016 11.8155 5.66016C10.0351 5.66016 8.58691 7.1083 8.58691 8.88875C8.58691 10.6692 10.0351 12.1166 11.8155 12.1166ZM11.8155 6.98866C12.8627 6.98866 13.7148 7.84086 13.7148 8.88801C13.7148 9.93516 12.8627 10.7874 11.8155 10.7874C10.7684 10.7874 9.91616 9.93516 9.91616 8.88801C9.91616 7.84086 10.7684 6.98866 11.8155 6.98866Z" fill="#3A3D3B"/>
</svg>
