<svg width="499" height="78" viewBox="0 0 499 78" fill="none" xmlns="http://www.w3.org/2000/svg">
<path d="M232.295 1.23047V12.1669C232.295 13.7072 232.526 14.8625 233.066 15.5556C233.837 16.6339 234.993 17.096 236.458 17.096C237.923 17.096 239.002 16.5569 239.85 15.5556C240.39 14.8625 240.621 13.7072 240.621 12.1669V1.23047H243.474V12.9371C243.474 14.8625 242.857 16.4028 241.623 17.6351C240.236 19.0214 238.54 19.7146 236.458 19.7146C234.376 19.7146 232.68 19.0214 231.292 17.6351C230.059 16.4028 229.442 14.7855 229.442 12.9371V1.23047H232.295Z" fill="#0075C9"/>
<path d="M248.022 19.3313V0L261.9 13.7861V1.23227H264.753V20.4866L250.875 6.62347V19.3313H248.022Z" fill="#0075C9"/>
<path d="M272.154 1.23047H269.302V19.4065H272.154V1.23047Z" fill="#0075C9"/>
<path d="M277.705 1.23047L282.948 13.7843L288.267 1.23047H291.428L282.871 20.7158L274.544 1.23047H277.705Z" fill="#0075C9"/>
<path d="M304.227 3.77203H296.594V8.16201H303.995V10.7036H296.594V16.7879H304.227V19.3295H293.741V1.23047H304.227V3.77203Z" fill="#0075C9"/>
<path d="M314.403 11.6278L320.263 19.3295H316.716L311.32 11.9358H310.78V19.3295H307.927V1.23047H311.32C313.864 1.23047 315.637 1.69257 316.793 2.61678C318.027 3.618 318.644 4.92729 318.644 6.62167C318.644 7.93096 318.258 9.0092 317.487 9.9334C316.716 10.7806 315.714 11.3967 314.403 11.6278ZM310.857 9.54832H311.782C314.481 9.54832 315.868 8.54709 315.868 6.54465C315.868 4.69624 314.558 3.77203 311.936 3.77203H310.934V9.54832H310.857Z" fill="#0075C9"/>
<path d="M333.909 3.92967L331.596 5.23896C331.134 4.54581 330.748 4.00669 330.363 3.85265C329.977 3.6216 329.437 3.46757 328.744 3.46757C327.973 3.46757 327.279 3.69862 326.739 4.0837C326.199 4.54581 325.968 5.00791 325.968 5.70106C325.968 6.54825 326.662 7.31842 328.05 7.85754L329.977 8.62771C331.519 9.24385 332.676 9.937 333.369 10.7842C334.063 11.6314 334.449 12.7096 334.449 13.9419C334.449 15.6363 333.909 17.0226 332.676 18.1008C331.519 19.1791 330.054 19.7182 328.281 19.7182C326.662 19.7182 325.274 19.2561 324.195 18.3319C323.115 17.4077 322.499 16.0984 322.19 14.404L325.12 13.7879C325.274 14.8661 325.505 15.5593 325.814 16.0214C326.431 16.7915 327.279 17.1766 328.358 17.1766C329.283 17.1766 329.977 16.8685 330.594 16.3294C331.211 15.7903 331.519 15.0201 331.519 14.1729C331.519 13.7879 331.442 13.4798 331.365 13.1717C331.288 12.8637 331.134 12.6326 330.902 12.3245C330.671 12.0935 330.44 11.8624 330.054 11.6314C329.669 11.4003 329.283 11.2463 328.821 11.0152L326.97 10.3221C324.349 9.24385 323.038 7.70351 323.038 5.70106C323.038 4.31475 323.578 3.1595 324.657 2.31231C325.737 1.3881 327.125 0.926001 328.744 0.926001C330.979 0.848984 332.676 1.85021 333.909 3.92967Z" fill="#0075C9"/>
<path d="M340.694 1.23047H337.841V19.4065H340.694V1.23047Z" fill="#0075C9"/>
<path d="M345.319 19.3295V1.23047H349.329C351.256 1.23047 352.721 1.3845 353.877 1.76959C355.034 2.07766 356.113 2.69379 357.115 3.54098C359.043 5.23536 360.045 7.46885 360.045 10.2415C360.045 13.0141 359.043 15.3246 356.961 17.019C355.959 17.8662 354.88 18.4823 353.723 18.7904C352.644 19.0984 351.179 19.3295 349.251 19.3295H345.319ZM348.172 16.7879H349.483C350.793 16.7879 351.873 16.6339 352.721 16.4028C353.569 16.0948 354.34 15.7097 355.034 15.0935C356.421 13.8613 357.115 12.2439 357.115 10.3185C357.115 8.31604 356.421 6.69868 355.034 5.46641C353.8 4.38817 351.95 3.77203 349.483 3.77203H348.172V16.7879Z" fill="#0075C9"/>
<path d="M373.769 14.9424H365.596L363.515 19.3324H360.431L369.837 0.078125L378.934 19.3324H375.773L373.769 14.9424ZM372.612 12.4009L369.759 6.23949L366.83 12.4009H372.612Z" fill="#0075C9"/>
<path d="M381.324 19.3295V1.23047H385.333C387.26 1.23047 388.725 1.3845 389.882 1.76959C391.038 2.07766 392.118 2.69379 393.12 3.54098C395.047 5.23536 396.05 7.46885 396.05 10.2415C396.05 13.0141 395.047 15.3246 392.966 17.019C391.963 17.8662 390.884 18.4823 389.728 18.7904C388.648 19.0984 387.183 19.3295 385.256 19.3295H381.324ZM384.177 16.7879H385.487C386.798 16.7879 387.877 16.6339 388.725 16.4028C389.573 16.0948 390.344 15.7097 391.038 15.0935C392.426 13.8613 393.12 12.2439 393.12 10.3185C393.12 8.31604 392.426 6.69868 391.038 5.46641C389.805 4.38817 387.954 3.77203 385.487 3.77203H384.177V16.7879Z" fill="#0075C9"/>
<path d="M239.156 29.4194H232.295V33.9634H238.925V36.582H232.295V45.5159H229.365V26.8008H239.156V29.4194Z" fill="#0075C9"/>
<path d="M249.256 37.5062L255.347 45.5159H251.723L246.095 37.8142H245.556V45.5159H242.549V26.8008H246.018C248.639 26.8008 250.49 27.2629 251.646 28.1871C252.957 29.2653 253.574 30.5746 253.574 32.269C253.574 33.5783 253.188 34.7335 252.34 35.7348C251.646 36.659 250.567 37.2751 249.256 37.5062ZM245.556 35.4267H246.481C249.256 35.4267 250.721 34.4255 250.721 32.346C250.721 30.4206 249.333 29.4964 246.635 29.4964H245.556V35.4267Z" fill="#0075C9"/>
<path d="M269.841 40.9737H261.438L259.279 45.5177H256.118L265.832 25.5703L275.238 45.5177H272L269.841 40.9737ZM268.608 38.3552L265.678 31.9627L262.594 38.3552H268.608Z" fill="#0075C9"/>
<path d="M277.628 45.5166V25.4922L291.891 39.8174V26.8015H294.898V46.6719L280.558 32.4237V45.5166H277.628Z" fill="#0075C9"/>
<path d="M314.326 27.8043V31.193C312.63 29.8067 310.857 29.1136 309.007 29.1136C307.002 29.1136 305.306 29.8067 303.918 31.193C302.531 32.5793 301.837 34.2737 301.837 36.2762C301.837 38.2786 302.531 39.896 303.918 41.2823C305.306 42.6686 307.002 43.2847 309.007 43.2847C310.009 43.2847 310.934 43.1307 311.628 42.8226C312.013 42.6686 312.476 42.4375 312.862 42.1295C313.324 41.8214 313.787 41.5133 314.249 41.1282V44.517C312.553 45.4412 310.78 45.9033 308.93 45.9033C306.154 45.9033 303.687 44.9791 301.76 43.1307C299.755 41.2053 298.83 38.9718 298.83 36.2762C298.83 33.8886 299.678 31.7321 301.297 29.8837C303.301 27.5732 306 26.418 309.161 26.418C310.934 26.418 312.63 26.8801 314.326 27.8043Z" fill="#0075C9"/>
<path d="M320.957 26.8008H318.027V45.593H320.957V26.8008Z" fill="#0075C9"/>
<path d="M336.839 29.5729L334.449 30.9592C333.986 30.189 333.601 29.7269 333.138 29.4958C332.753 29.2648 332.136 29.1107 331.519 29.1107C330.671 29.1107 329.977 29.3418 329.437 29.8039C328.898 30.266 328.589 30.8051 328.589 31.4983C328.589 32.4225 329.283 33.1156 330.748 33.7318L332.676 34.5019C334.295 35.1181 335.451 35.8883 336.145 36.7354C336.916 37.6596 337.224 38.7379 337.224 39.9702C337.224 41.6645 336.608 43.1279 335.451 44.2831C334.217 45.4384 332.753 45.9775 330.902 45.9775C329.206 45.9775 327.818 45.5154 326.662 44.5142C325.583 43.5129 324.889 42.2037 324.58 40.4323L327.587 39.8161C327.741 40.8944 327.973 41.6645 328.281 42.1266C328.898 42.8968 329.746 43.3589 330.979 43.3589C331.905 43.3589 332.676 43.0508 333.292 42.5117C333.909 41.8956 334.217 41.2024 334.217 40.2782C334.217 39.8931 334.14 39.5851 334.063 39.277C333.909 38.9689 333.755 38.6609 333.524 38.4298C333.292 38.1988 332.984 37.9677 332.676 37.7367C332.29 37.5056 331.905 37.2746 331.442 37.1205L329.515 36.3504C326.816 35.2721 325.505 33.6548 325.505 31.5753C325.505 30.189 326.045 28.9567 327.202 28.0325C328.358 27.1083 329.746 26.5692 331.442 26.5692C333.755 26.4152 335.605 27.4934 336.839 29.5729Z" fill="#0075C9"/>
<path d="M355.419 27.8043V31.193C353.723 29.8067 351.95 29.1136 350.1 29.1136C348.095 29.1136 346.399 29.8067 345.011 31.193C343.623 32.5793 342.93 34.2737 342.93 36.2762C342.93 38.2786 343.623 39.896 345.011 41.2823C346.399 42.6686 348.095 43.2847 350.1 43.2847C351.179 43.2847 352.027 43.1307 352.798 42.8226C353.184 42.6686 353.646 42.4375 354.032 42.1295C354.494 41.8214 354.957 41.5133 355.419 41.1282V44.517C353.723 45.4412 351.95 45.9033 350.1 45.9033C347.324 45.9033 344.857 44.9791 342.93 43.1307C340.925 41.2053 340 38.9718 340 36.2762C340 33.8886 340.848 31.7321 342.467 29.8837C344.472 27.5732 347.093 26.418 350.331 26.418C352.104 26.418 353.8 26.8801 355.419 27.8043Z" fill="#0075C9"/>
<path d="M358.041 36.0451C358.041 33.4265 359.043 31.116 361.047 29.2676C363.052 27.3422 365.519 26.418 368.295 26.418C371.07 26.418 373.46 27.3422 375.465 29.2676C377.469 31.193 378.471 33.5035 378.471 36.1991C378.471 38.8947 377.469 41.2053 375.465 43.0537C373.46 44.9791 370.993 45.9033 368.14 45.9033C365.596 45.9033 363.36 45.0561 361.279 43.3617C359.197 41.5133 358.041 39.0488 358.041 36.0451ZM361.047 36.1221C361.047 38.2016 361.818 39.896 363.206 41.2823C364.671 42.5916 366.29 43.2847 368.217 43.2847C370.299 43.2847 371.995 42.5916 373.46 41.2053C374.848 39.8189 375.619 38.1246 375.619 36.1991C375.619 34.1967 374.925 32.5023 373.537 31.193C372.149 29.8067 370.453 29.1136 368.372 29.1136C366.367 29.1136 364.594 29.8067 363.206 31.193C361.741 32.5023 361.047 34.1197 361.047 36.1221Z" fill="#0075C9"/>
<path d="M400.521 35.7342H408.617V36.4274C408.617 37.8137 408.462 39.046 408.077 40.2012C407.769 41.2025 407.152 42.1267 406.381 43.0509C404.53 44.9763 402.217 45.9775 399.442 45.9775C396.666 45.9775 394.354 45.0533 392.349 43.1279C390.422 41.2025 389.419 38.969 389.419 36.2734C389.419 33.5778 390.422 31.2672 392.426 29.3418C394.431 27.4164 396.821 26.4922 399.673 26.4922C401.215 26.4922 402.603 26.8003 403.991 27.4164C405.224 28.0325 406.535 28.9567 407.768 30.343L405.687 32.2685C404.068 30.189 402.14 29.1878 399.827 29.1878C397.746 29.1878 395.973 29.8809 394.585 31.2672C393.197 32.6536 392.503 34.2709 392.503 36.3504C392.503 38.4298 393.274 40.1242 394.816 41.5105C396.281 42.7428 397.9 43.3589 399.596 43.3589C401.061 43.3589 402.372 42.8968 403.528 41.9726C404.685 41.0484 405.378 39.8932 405.456 38.5839H400.598V35.7342H400.521Z" fill="#0075C9"/>
<path d="M422.957 40.9737H414.553L412.394 45.5177H409.233L418.948 25.5703L428.354 45.5177H425.115L422.957 40.9737ZM421.8 38.3552L418.871 31.9627L415.787 38.3552H421.8Z" fill="#0075C9"/>
<path d="M430.204 26.8008L435.601 39.8167L441.152 26.8008H444.39L435.601 46.9793L426.966 26.8008H430.204Z" fill="#0075C9"/>
<path d="M449.787 26.8008H446.857V45.593H449.787V26.8008Z" fill="#0075C9"/>
<path d="M454.49 45.5159V26.8008H458.576C460.58 26.8008 462.122 26.9548 463.279 27.3399C464.512 27.725 465.592 28.3411 466.594 29.1883C468.598 30.9597 469.601 33.2702 469.601 36.1199C469.601 38.9695 468.521 41.357 466.44 43.1284C465.36 44.0526 464.281 44.6688 463.124 44.9768C462.045 45.2849 460.503 45.5159 458.499 45.5159H454.49ZM457.496 42.8974H458.807C460.118 42.8974 461.274 42.7433 462.122 42.5123C463.047 42.2042 463.818 41.7421 464.512 41.126C465.977 39.8167 466.671 38.1993 466.671 36.1199C466.671 34.0404 465.977 32.423 464.512 31.1137C463.202 29.9585 461.274 29.4194 458.807 29.4194H457.496V42.8974Z" fill="#0075C9"/>
<path d="M476.385 26.8008H473.455V45.593H476.385V26.8008Z" fill="#0075C9"/>
<path d="M492.653 40.9737H484.249L482.09 45.5177H478.929L488.644 25.5703L498.05 45.5177H494.811L492.653 40.9737ZM491.496 38.3552L488.567 31.9627L485.483 38.3552H491.496Z" fill="#0075C9"/>
<path d="M229.673 73.7058V64.3867H233.22C233.836 64.3867 234.299 64.3867 234.607 64.4637C235.07 64.5408 235.456 64.6948 235.764 64.9258C236.072 65.1569 236.304 65.465 236.535 65.85C236.689 66.2351 236.843 66.6202 236.843 67.0823C236.843 67.8525 236.612 68.5456 236.072 69.0848C235.533 69.6239 234.685 69.9319 233.374 69.9319H230.984V73.7058H229.673ZM230.907 68.8537H233.297C234.068 68.8537 234.685 68.6997 234.993 68.3916C235.301 68.0835 235.533 67.6985 235.533 67.1593C235.533 66.7742 235.456 66.4662 235.224 66.1581C234.993 65.85 234.762 65.696 234.453 65.619C234.222 65.542 233.836 65.542 233.297 65.542H230.907V68.8537Z" fill="#1D1D1B"/>
<path d="M237.768 70.3162C237.768 69.0839 238.077 68.1597 238.848 67.5436C239.465 67.0815 240.158 66.7734 240.929 66.7734C241.855 66.7734 242.626 67.0815 243.165 67.6976C243.782 68.3138 244.013 69.161 244.013 70.2392C244.013 71.0864 243.859 71.7795 243.628 72.3187C243.397 72.7808 243.011 73.1659 242.471 73.4739C242.009 73.782 241.469 73.859 240.852 73.859C239.927 73.859 239.156 73.5509 238.539 72.9348C238 72.3187 237.768 71.4715 237.768 70.3162ZM238.925 70.3162C238.925 71.1634 239.079 71.8566 239.465 72.2417C239.85 72.7038 240.313 72.8578 240.852 72.8578C241.392 72.8578 241.855 72.6267 242.24 72.2417C242.626 71.7795 242.78 71.1634 242.78 70.2392C242.78 69.392 242.626 68.7759 242.24 68.3138C241.855 67.8517 241.392 67.6976 240.852 67.6976C240.313 67.6976 239.773 67.9287 239.465 68.3138C239.079 68.8529 238.925 69.469 238.925 70.3162Z" fill="#1D1D1B"/>
<path d="M246.635 73.7044L244.553 67.0039H245.709L246.789 70.8548L247.174 72.3181C247.174 72.2411 247.328 71.779 247.56 70.9318L248.639 67.0039H249.796L250.798 70.9318L251.106 72.2411L251.492 70.9318L252.648 67.0039H253.728L251.646 73.7044H250.489L249.41 69.6995L249.179 68.5442L247.791 73.7044H246.635Z" fill="#1D1D1B"/>
<path d="M259.433 71.5496L260.589 71.7036C260.435 72.3968 260.05 72.9359 259.587 73.321C259.047 73.7061 258.431 73.8601 257.66 73.8601C256.657 73.8601 255.886 73.5521 255.347 72.9359C254.807 72.3198 254.499 71.4726 254.499 70.3943C254.499 69.2391 254.807 68.3919 255.347 67.7758C255.886 67.1596 256.657 66.8516 257.582 66.8516C258.508 66.8516 259.201 67.1596 259.818 67.7758C260.358 68.3919 260.666 69.2391 260.666 70.3943C260.666 70.4714 260.666 70.5484 260.666 70.7024H255.655C255.732 71.4726 255.886 72.0117 256.272 72.3968C256.657 72.7819 257.12 73.0129 257.66 73.0129C258.045 73.0129 258.431 72.9359 258.739 72.7049C258.97 72.3968 259.201 72.0117 259.433 71.5496ZM255.655 69.7012H259.433C259.356 69.1621 259.201 68.7 258.97 68.3919C258.585 67.9298 258.122 67.6987 257.582 67.6987C257.043 67.6987 256.58 67.8528 256.272 68.2379C255.886 68.623 255.655 69.0851 255.655 69.7012Z" fill="#1D1D1B"/>
<path d="M261.977 73.7061V67.0056H262.979V68.0068C263.211 67.5447 263.519 67.2367 263.673 67.0826C263.904 66.9286 264.136 66.8516 264.444 66.8516C264.83 66.8516 265.215 67.0056 265.601 67.2366L265.215 68.3149C264.907 68.1609 264.675 68.0838 264.367 68.0838C264.136 68.0838 263.904 68.1609 263.673 68.3149C263.442 68.4689 263.365 68.7 263.211 68.931C263.056 69.3161 263.056 69.7782 263.056 70.2403V73.7831H261.977V73.7061Z" fill="#1D1D1B"/>
<path d="M270.92 71.5496L272.077 71.7036C271.923 72.3968 271.537 72.9359 271.074 73.321C270.535 73.7061 269.918 73.8601 269.147 73.8601C268.145 73.8601 267.374 73.5521 266.834 72.9359C266.294 72.3198 265.986 71.4726 265.986 70.3943C265.986 69.2391 266.294 68.3919 266.834 67.7758C267.374 67.1596 268.145 66.8516 269.07 66.8516C269.995 66.8516 270.689 67.1596 271.306 67.7758C271.923 68.3919 272.154 69.2391 272.154 70.3943C272.154 70.4714 272.154 70.5484 272.154 70.7024H267.143C267.22 71.4726 267.374 72.0117 267.759 72.3968C268.145 72.7819 268.607 73.0129 269.147 73.0129C269.533 73.0129 269.918 72.9359 270.226 72.7049C270.535 72.3968 270.766 72.0117 270.92 71.5496ZM267.22 69.7012H270.997C270.92 69.1621 270.766 68.7 270.535 68.3919C270.149 67.9298 269.687 67.6987 269.147 67.6987C268.607 67.6987 268.145 67.8528 267.836 68.2379C267.451 68.623 267.22 69.0851 267.22 69.7012Z" fill="#1D1D1B"/>
<path d="M277.936 73.7058V72.8586C277.474 73.5518 276.857 73.8598 276.086 73.8598C275.546 73.8598 275.084 73.7058 274.621 73.3977C274.158 73.0897 273.85 72.7046 273.542 72.1654C273.31 71.6263 273.156 71.0102 273.156 70.317C273.156 69.6239 273.233 69.0077 273.465 68.4686C273.696 67.9295 274.004 67.4674 274.467 67.2363C274.929 66.9283 275.392 66.7742 276.009 66.7742C276.394 66.7742 276.78 66.8513 277.088 67.0053C277.396 67.1593 277.628 67.3904 277.859 67.6985V64.3867H279.016V73.7058H277.936ZM274.313 70.317C274.313 71.1642 274.467 71.8574 274.852 72.2425C275.238 72.7046 275.623 72.8586 276.163 72.8586C276.626 72.8586 277.088 72.6275 277.474 72.2425C277.859 71.8574 278.013 71.2412 278.013 70.3941C278.013 69.4698 277.859 68.7767 277.474 68.3916C277.088 67.9295 276.703 67.7755 276.163 67.7755C275.623 67.7755 275.238 68.0065 274.852 68.3916C274.467 68.7767 274.313 69.4698 274.313 70.317Z" fill="#1D1D1B"/>
<path d="M285.492 73.7058H284.412V64.3867H285.569V67.6985C286.031 67.0823 286.648 66.7742 287.419 66.7742C287.805 66.7742 288.19 66.8513 288.576 67.0053C288.961 67.1593 289.269 67.3904 289.501 67.6985C289.732 68.0065 289.963 68.3916 290.04 68.7767C290.195 69.2388 290.272 69.6239 290.272 70.163C290.272 71.3183 289.963 72.2425 289.424 72.8586C288.884 73.4747 288.19 73.7828 287.342 73.7828C286.571 73.7828 285.954 73.4747 285.492 72.7816V73.7058ZM285.415 70.317C285.415 71.0872 285.492 71.7033 285.723 72.0884C286.108 72.7046 286.571 72.9356 287.188 72.9356C287.65 72.9356 288.113 72.7046 288.499 72.3195C288.884 71.8574 289.038 71.2412 289.038 70.3941C289.038 69.5469 288.884 68.8537 288.499 68.4686C288.113 68.0835 287.728 67.8525 287.265 67.8525C286.802 67.8525 286.34 68.0835 285.954 68.4686C285.646 68.8537 285.415 69.4698 285.415 70.317Z" fill="#1D1D1B"/>
<path d="M291.582 76.3247L291.428 75.2464C291.659 75.3234 291.891 75.3234 292.045 75.3234C292.276 75.3234 292.508 75.2464 292.662 75.1694C292.816 75.0924 292.97 74.9384 293.047 74.7843C293.124 74.7073 293.201 74.3992 293.433 73.9371C293.433 73.8601 293.51 73.7831 293.51 73.6291L290.966 66.8516H292.199L293.587 70.7794C293.741 71.2415 293.895 71.7807 294.049 72.3198C294.204 71.7807 294.358 71.3186 294.512 70.7794L295.977 66.8516H297.133L294.589 73.7061C294.281 74.4763 294.127 74.9384 293.972 75.2464C293.741 75.6315 293.51 75.8626 293.278 76.0936C293.047 76.2477 292.739 76.3247 292.353 76.3247C292.122 76.4787 291.891 76.4017 291.582 76.3247Z" fill="#1D1D1B"/>
<path d="M313.324 73.7077H310.78L309.777 71.0891H305.152L304.226 73.7077H301.759L306.308 62.0781H308.775L313.324 73.7077ZM309.006 69.0867L307.387 64.7737L305.845 69.0867H309.006Z" fill="#1D1D1B"/>
<path d="M316.716 73.708H314.48V65.3131H316.562V66.4683C316.947 65.9292 317.256 65.5441 317.487 65.3131C317.796 65.1591 318.104 65.082 318.489 65.082C319.029 65.082 319.492 65.2361 319.954 65.4671L319.26 67.3925C318.875 67.1615 318.567 67.0075 318.181 67.0075C317.873 67.0075 317.641 67.0845 317.41 67.2385C317.179 67.3925 317.025 67.7006 316.87 68.1627C316.716 68.6248 316.716 69.549 316.716 71.0124V73.708Z" fill="#1D1D1B"/>
<path d="M320.879 64.1576V62.0781H323.115V64.1576H320.879ZM320.879 73.7077V65.3128H323.115V73.7077H320.879Z" fill="#1D1D1B"/>
<path d="M324.503 73.7063V71.9349L327.664 68.3151C328.204 67.6989 328.589 67.3138 328.82 67.0828C328.589 67.0828 328.204 67.0828 327.818 67.0828H324.811V65.2344H331.75V66.7747L328.512 70.4715L327.356 71.7038C327.972 71.7038 328.358 71.6268 328.512 71.6268H331.981V73.5522H324.503V73.7063Z" fill="#1D1D1B"/>
<path d="M332.984 69.395C332.984 68.6248 333.138 67.9317 333.523 67.2385C333.909 66.5454 334.371 66.0062 335.065 65.6212C335.759 65.2361 336.453 65.082 337.301 65.082C338.612 65.082 339.614 65.4671 340.462 66.3143C341.31 67.1615 341.696 68.1627 341.696 69.472C341.696 70.7813 341.31 71.7825 340.462 72.6297C339.614 73.4769 338.612 73.862 337.378 73.862C336.607 73.862 335.836 73.708 335.142 73.3229C334.448 72.9378 333.909 72.4757 333.523 71.7825C333.215 71.1664 332.984 70.3192 332.984 69.395ZM335.297 69.472C335.297 70.3192 335.528 70.9353 335.913 71.3974C336.299 71.8595 336.761 72.0906 337.378 72.0906C337.995 72.0906 338.458 71.8595 338.843 71.3974C339.229 70.9353 339.46 70.3192 339.46 69.472C339.46 68.6248 339.229 68.0087 338.843 67.5466C338.458 67.0845 337.995 66.8534 337.378 66.8534C336.761 66.8534 336.299 67.0845 335.913 67.5466C335.528 68.0087 335.297 68.7018 335.297 69.472Z" fill="#1D1D1B"/>
<path d="M351.102 73.708H348.866V69.395C348.866 68.4708 348.789 67.9317 348.712 67.6236C348.635 67.3925 348.48 67.1615 348.249 67.0075C348.018 66.8534 347.786 66.7764 347.478 66.7764C347.093 66.7764 346.707 66.8534 346.476 67.0845C346.167 67.3155 345.936 67.5466 345.859 67.9317C345.782 68.3168 345.705 68.9329 345.705 69.8571V73.6309H343.469V65.3131H345.551V66.5454C346.322 65.6212 347.247 65.082 348.326 65.082C348.789 65.082 349.251 65.1591 349.637 65.3131C350.022 65.4671 350.331 65.6982 350.562 66.0062C350.793 66.3143 350.947 66.6224 351.025 66.9304C351.102 67.3155 351.179 67.7776 351.179 68.3938V73.708H351.102Z" fill="#1D1D1B"/>
<path d="M355.034 67.8547L353.029 67.4696C353.26 66.6224 353.646 66.0833 354.186 65.6982C354.725 65.3131 355.573 65.082 356.653 65.082C357.655 65.082 358.349 65.2361 358.888 65.4671C359.351 65.6982 359.737 66.0062 359.891 66.3913C360.122 66.7764 360.199 67.3925 360.199 68.3938V71.0124C360.199 71.7825 360.199 72.3216 360.276 72.6297C360.353 73.0148 360.507 73.3229 360.662 73.785H358.426C358.349 73.6309 358.272 73.3999 358.195 73.0918C358.195 72.9378 358.117 72.8608 358.117 72.8608C357.732 73.2458 357.346 73.4769 356.884 73.708C356.421 73.862 355.959 74.016 355.496 74.016C354.648 74.016 353.954 73.785 353.415 73.3229C352.952 72.8608 352.644 72.2446 352.644 71.5515C352.644 71.0894 352.721 70.6273 352.952 70.2422C353.183 69.8571 353.492 69.549 353.877 69.395C354.263 69.1639 354.879 69.0099 355.65 68.8559C356.73 68.6248 357.424 68.4708 357.809 68.3168V68.0087C357.809 67.5466 357.732 67.2385 357.501 67.0845C357.269 66.9304 356.884 66.7764 356.267 66.7764C355.882 66.7764 355.573 66.8534 355.342 67.0075C355.342 67.1615 355.188 67.4696 355.034 67.8547ZM358.04 69.7031C357.732 69.7801 357.269 69.9341 356.653 70.0111C356.036 70.1652 355.65 70.2422 355.419 70.3962C355.111 70.6273 354.956 70.8583 354.956 71.1664C354.956 71.4745 355.111 71.7825 355.342 71.9366C355.573 72.1676 355.882 72.2446 356.267 72.2446C356.653 72.2446 357.038 72.0906 357.424 71.8595C357.732 71.6285 357.886 71.3974 357.963 71.0894C358.04 70.9353 358.04 70.5502 358.04 70.0111V69.7031Z" fill="#1D1D1B"/>
<path d="M366.367 69.9305L368.68 69.6995C368.834 70.4697 369.065 71.0088 369.528 71.3939C369.913 71.779 370.53 71.933 371.224 71.933C371.995 71.933 372.535 71.779 372.92 71.4709C373.306 71.1628 373.46 70.7777 373.46 70.3156C373.46 70.0076 373.383 69.7765 373.229 69.6225C373.074 69.4684 372.766 69.2374 372.381 69.0834C372.072 69.0063 371.455 68.8523 370.53 68.5442C369.297 68.2362 368.371 67.8511 367.909 67.389C367.215 66.7728 366.83 66.0027 366.83 65.0785C366.83 64.4623 366.984 63.9232 367.369 63.3841C367.678 62.845 368.217 62.4599 368.834 62.2288C369.451 61.9978 370.222 61.8438 371.147 61.8438C372.612 61.8438 373.691 62.1518 374.462 62.768C375.233 63.3841 375.619 64.2313 375.619 65.3095L373.306 65.3865C373.229 64.7704 372.997 64.3853 372.689 64.0772C372.381 63.8462 371.841 63.6922 371.224 63.6922C370.53 63.6922 369.991 63.8462 369.605 64.0772C369.374 64.2313 369.22 64.4623 369.22 64.7704C369.22 65.0785 369.374 65.3095 369.605 65.4636C369.913 65.6946 370.607 66.0027 371.764 66.2337C372.92 66.4648 373.768 66.7728 374.308 67.0809C374.848 67.389 375.31 67.7741 375.619 68.2362C375.927 68.6983 376.081 69.3144 376.081 70.0846C376.081 70.7777 375.927 71.3939 375.542 71.933C375.156 72.5491 374.616 72.9342 374 73.2423C373.306 73.5504 372.458 73.7044 371.455 73.7044C369.991 73.7044 368.834 73.3963 368.063 72.7032C366.984 72.2411 366.521 71.2398 366.367 69.9305Z" fill="#1D1D1B"/>
<path d="M381.632 65.3112V67.0825H380.09V70.4713C380.09 71.1645 380.09 71.5495 380.167 71.7036C380.167 71.7806 380.244 71.9346 380.399 72.0116C380.476 72.0887 380.63 72.0887 380.784 72.0887C381.015 72.0887 381.324 72.0116 381.709 71.8576L381.864 73.552C381.324 73.783 380.784 73.8601 380.09 73.8601C379.705 73.8601 379.319 73.783 379.011 73.629C378.703 73.475 378.471 73.3209 378.317 73.0899C378.163 72.8588 378.086 72.5508 378.009 72.2427C377.932 72.0116 377.932 71.4725 377.932 70.7024V67.0055H376.852V65.2341H377.854V63.5398L380.09 62.2305V65.2341H381.632V65.3112Z" fill="#1D1D1B"/>
<path d="M384.87 67.8547L382.866 67.4696C383.097 66.6224 383.482 66.0833 384.022 65.6982C384.562 65.3131 385.41 65.082 386.489 65.082C387.492 65.082 388.185 65.2361 388.725 65.4671C389.188 65.6982 389.573 66.0062 389.727 66.3913C389.959 66.7764 390.036 67.3925 390.036 68.3938V71.0124C390.036 71.7825 390.036 72.3216 390.113 72.6297C390.19 73.0148 390.344 73.3229 390.498 73.785H388.263C388.185 73.6309 388.108 73.3999 388.031 73.0918C388.031 72.9378 387.954 72.8608 387.954 72.8608C387.569 73.2458 387.183 73.4769 386.721 73.708C386.258 73.862 385.795 74.016 385.333 74.016C384.485 74.016 383.791 73.785 383.251 73.3229C382.789 72.8608 382.48 72.2446 382.48 71.5515C382.48 71.0894 382.557 70.6273 382.789 70.2422C383.02 69.8571 383.328 69.549 383.714 69.395C384.099 69.1639 384.716 69.0099 385.487 68.8559C386.566 68.6248 387.26 68.4708 387.646 68.3168V68.0087C387.646 67.5466 387.569 67.2385 387.337 67.0845C387.106 66.9304 386.721 66.7764 386.104 66.7764C385.718 66.7764 385.41 66.8534 385.179 67.0075C385.179 67.1615 385.024 67.4696 384.87 67.8547ZM387.8 69.7031C387.492 69.7801 387.029 69.9341 386.412 70.0111C385.795 70.1652 385.41 70.2422 385.179 70.3962C384.87 70.6273 384.716 70.8583 384.716 71.1664C384.716 71.4745 384.87 71.7825 385.102 71.9366C385.333 72.1676 385.641 72.2446 386.027 72.2446C386.412 72.2446 386.798 72.0906 387.183 71.8595C387.492 71.6285 387.646 71.3974 387.723 71.0894C387.8 70.9353 387.8 70.5502 387.8 70.0111V69.7031Z" fill="#1D1D1B"/>
<path d="M396.049 65.3112V67.0825H394.507V70.4713C394.507 71.1645 394.507 71.5495 394.585 71.7036C394.585 71.7806 394.662 71.9346 394.816 72.0116C394.893 72.0887 395.047 72.0887 395.201 72.0887C395.433 72.0887 395.741 72.0116 396.126 71.8576L396.281 73.552C395.741 73.783 395.201 73.8601 394.507 73.8601C394.122 73.8601 393.736 73.783 393.428 73.629C393.12 73.475 392.888 73.3209 392.734 73.0899C392.58 72.8588 392.503 72.5508 392.426 72.2427C392.349 72.0116 392.349 71.4725 392.349 70.7024V67.0055H391.346V65.2341H392.349V63.5398L394.585 62.2305V65.2341H396.049V65.3112Z" fill="#1D1D1B"/>
<path d="M402.526 71.0112L404.761 71.3963C404.453 72.2435 403.991 72.8597 403.374 73.2447C402.757 73.7068 401.986 73.8609 401.061 73.8609C399.596 73.8609 398.517 73.3988 397.823 72.3975C397.283 71.6274 396.975 70.7032 396.975 69.4709C396.975 68.0846 397.36 67.0064 398.054 66.1592C398.748 65.389 399.673 65.0039 400.829 65.0039C402.063 65.0039 403.065 65.389 403.759 66.2362C404.453 67.0834 404.839 68.3156 404.761 70.01H399.21C399.21 70.7032 399.442 71.1653 399.75 71.5504C400.059 71.9354 400.521 72.0895 401.061 72.0895C401.446 72.0895 401.678 72.0125 401.909 71.7814C402.217 71.7814 402.371 71.4733 402.526 71.0112ZM402.603 68.7777C402.603 68.1616 402.449 67.6225 402.14 67.3144C401.832 67.0064 401.446 66.7753 400.984 66.7753C400.521 66.7753 400.059 66.9293 399.75 67.3144C399.442 67.6995 399.288 68.1616 399.288 68.7777H402.603Z" fill="#1D1D1B"/>
<path d="M411.16 62.0781H413.473V68.3935C413.473 69.3947 413.473 70.0109 413.55 70.319C413.628 70.7811 413.859 71.1661 414.244 71.4742C414.63 71.7823 415.169 71.9363 415.786 71.9363C416.48 71.9363 416.943 71.7823 417.328 71.5512C417.637 71.2432 417.868 70.9351 417.945 70.55C418.022 70.1649 418.022 69.4718 418.022 68.5476V62.1551H420.335V68.2395C420.335 69.6258 420.258 70.627 420.181 71.1661C420.027 71.7053 419.795 72.2444 419.487 72.6295C419.179 73.0146 418.716 73.3226 418.099 73.5537C417.56 73.7847 416.789 73.9388 415.863 73.9388C414.784 73.9388 413.936 73.7847 413.319 73.5537C412.779 73.3226 412.317 72.9375 411.931 72.5525C411.623 72.1674 411.392 71.7053 411.238 71.2432C411.083 70.55 411.006 69.6258 411.006 68.3165V62.0781H411.16Z" fill="#1D1D1B"/>
<path d="M430.589 73.708H428.353V69.395C428.353 68.4708 428.276 67.9317 428.199 67.6236C428.122 67.3925 427.968 67.1615 427.736 67.0075C427.505 66.8534 427.274 66.7764 426.965 66.7764C426.58 66.7764 426.194 66.8534 425.963 67.0845C425.655 67.3155 425.423 67.5466 425.346 67.9317C425.269 68.3168 425.192 68.9329 425.192 69.8571V73.6309H422.956V65.3131H425.038V66.5454C425.809 65.6212 426.734 65.082 427.813 65.082C428.276 65.082 428.739 65.1591 429.124 65.3131C429.51 65.4671 429.818 65.6982 430.049 66.0062C430.281 66.3143 430.435 66.6224 430.512 66.9304C430.589 67.2385 430.666 67.7776 430.666 68.3938V73.708H430.589Z" fill="#1D1D1B"/>
<path d="M432.825 64.1576V62.0781H435.061V64.1576H432.825ZM432.825 73.7077V65.3128H435.061V73.7077H432.825Z" fill="#1D1D1B"/>
<path d="M439.687 73.7074L436.294 65.3125H438.607L440.226 69.6255L440.689 71.0888C440.843 70.7037 440.92 70.4726 440.92 70.3956C440.997 70.1646 441.074 69.9335 441.151 69.7025L442.771 65.3895H445.083L441.768 73.7844H439.687V73.7074Z" fill="#1D1D1B"/>
<path d="M451.251 71.0112L453.487 71.3963C453.179 72.2435 452.716 72.8597 452.099 73.2447C451.482 73.7068 450.711 73.8609 449.786 73.8609C448.321 73.8609 447.242 73.3988 446.548 72.3975C446.009 71.6274 445.7 70.7032 445.7 69.4709C445.7 68.0846 446.086 67.0064 446.78 66.1592C447.473 65.389 448.399 65.0039 449.555 65.0039C450.789 65.0039 451.791 65.389 452.485 66.2362C453.179 67.0834 453.564 68.3156 453.487 70.01H447.936C447.936 70.7032 448.167 71.1653 448.476 71.5504C448.784 71.9354 449.247 72.0895 449.786 72.0895C450.172 72.0895 450.403 72.0125 450.634 71.7814C450.943 71.7814 451.174 71.4733 451.251 71.0112ZM451.405 68.7777C451.405 68.1616 451.251 67.6225 450.943 67.3144C450.634 67.0064 450.249 66.7753 449.786 66.7753C449.324 66.7753 448.861 66.9293 448.553 67.3144C448.244 67.6995 448.09 68.1616 448.09 68.7777H451.405Z" fill="#1D1D1B"/>
<path d="M457.573 73.708H455.337V65.3131H457.419V66.4683C457.804 65.9292 458.113 65.5441 458.344 65.3131C458.652 65.1591 458.961 65.082 459.346 65.082C459.886 65.082 460.349 65.2361 460.811 65.4671L460.117 67.3925C459.732 67.1615 459.423 67.0075 459.038 67.0075C458.73 67.0075 458.498 67.0845 458.267 67.2385C458.036 67.3925 457.882 67.7006 457.727 68.1627C457.573 68.6248 457.573 69.549 457.573 71.0124V73.708Z" fill="#1D1D1B"/>
<path d="M460.965 71.3204L463.201 71.0124C463.278 71.4745 463.51 71.7825 463.818 72.0136C464.126 72.2446 464.512 72.3216 465.052 72.3216C465.591 72.3216 466.054 72.2446 466.362 72.0136C466.594 71.8595 466.671 71.7055 466.671 71.3974C466.671 71.2434 466.594 71.0894 466.516 71.0124C466.439 70.9353 466.131 70.7813 465.745 70.7043C463.972 70.3192 462.816 69.9341 462.353 69.626C461.659 69.1639 461.351 68.5478 461.351 67.7006C461.351 67.0075 461.659 66.3913 462.199 65.8522C462.739 65.3901 463.664 65.082 464.897 65.082C466.054 65.082 466.902 65.2361 467.442 65.6212C467.981 66.0062 468.367 66.5454 468.598 67.3155L466.516 67.7006C466.439 67.3925 466.285 67.0845 465.977 66.9304C465.745 66.7764 465.36 66.6994 464.897 66.6994C464.281 66.6994 463.895 66.7764 463.664 66.9304C463.51 67.0845 463.433 67.1615 463.433 67.3925C463.433 67.5466 463.51 67.7006 463.664 67.7776C463.895 67.9317 464.589 68.1627 465.745 68.3938C466.902 68.6248 467.75 69.0099 468.213 69.395C468.675 69.7801 468.906 70.3192 468.906 71.0894C468.906 71.8595 468.598 72.5527 467.904 73.0918C467.287 73.6309 466.285 73.939 465.052 73.939C463.895 73.939 462.97 73.708 462.353 73.2458C461.582 72.7067 461.197 72.0906 460.965 71.3204Z" fill="#1D1D1B"/>
<path d="M470.757 64.1576V62.0781H472.993V64.1576H470.757ZM470.757 73.7077V65.3128H472.993V73.7077H470.757Z" fill="#1D1D1B"/>
<path d="M479.16 65.3112V67.0825H477.619V70.4713C477.619 71.1645 477.619 71.5495 477.696 71.7036C477.696 71.7806 477.773 71.9346 477.927 72.0116C478.004 72.0887 478.158 72.0887 478.312 72.0887C478.544 72.0887 478.852 72.0116 479.238 71.8576L479.392 73.552C478.852 73.783 478.312 73.8601 477.619 73.8601C477.233 73.8601 476.848 73.783 476.539 73.629C476.231 73.475 476 73.3209 475.845 73.0899C475.691 72.8588 475.614 72.5508 475.537 72.2427C475.46 72.0116 475.46 71.4725 475.46 70.7024V67.0055H474.458V65.2341H475.46V63.5398L477.696 62.2305V65.2341H479.16V65.3112Z" fill="#1D1D1B"/>
<path d="M479.623 65.3125H482.013L484.018 71.3198L486.022 65.3125H488.335L485.328 73.3993L484.789 74.8626C484.557 75.3247 484.403 75.7098 484.249 76.0179C484.095 76.2489 483.863 76.48 483.632 76.634C483.401 76.788 483.092 76.9421 482.784 77.0191C482.476 77.0961 482.09 77.1731 481.628 77.1731C481.165 77.1731 480.779 77.0961 480.394 77.0191L480.163 75.2477C480.548 75.3247 480.857 75.3247 481.088 75.3247C481.628 75.3247 482.013 75.1707 482.244 74.8626C482.476 74.5546 482.707 74.1695 482.784 73.7074L479.623 65.3125Z" fill="#1D1D1B"/>
<path d="M493.578 62.3077V63.617H493.809C494.04 63.617 494.194 63.617 494.349 63.617C494.503 63.617 495.12 63.617 495.12 63.0009C495.12 62.9239 495.12 62.6158 494.811 62.4618C494.657 62.3847 494.426 62.3847 493.963 62.3847H493.578V62.3077ZM492.807 61.6916H494.117C494.657 61.6916 495.042 61.6916 495.428 61.9996C495.659 62.2307 495.891 62.5388 495.891 63.0009C495.891 63.771 495.274 64.0791 495.042 64.1561L495.968 65.8505H495.042L494.194 64.3102H493.501V65.8505H492.73V61.6916H492.807ZM494.194 60.0742C492.19 60.0742 490.417 61.6916 490.417 63.8481C490.417 66.0816 492.19 67.6219 494.194 67.6219C496.276 67.6219 497.972 66.0045 497.972 63.9251C497.972 61.7686 496.43 60.0742 494.194 60.0742ZM494.194 67.0828C492.344 67.0828 490.879 65.6195 490.879 63.771C490.879 61.9226 492.344 60.4593 494.194 60.4593C496.122 60.4593 497.51 61.9996 497.51 63.771C497.51 65.6195 496.122 67.0828 494.194 67.0828Z" fill="#1D1D1B"/>
<path d="M498.666 52.3711H229.134V53.4493H498.666V52.3711Z" fill="#1D1D1B"/>
<path d="M80.1813 77.3263H106.626V50.0622H129.755V29.9608H106.626V20.2566H131.991V0.078125H80.1813V77.3263ZM86.5033 6.54756H125.823V13.7872H100.458V36.3532H123.587V43.5928H100.458V70.8568H86.5033V6.54756Z" fill="#0075C9"/>
<path d="M46.2585 45.0561C46.2585 50.1392 45.0249 53.8361 36.6213 53.9901H36.2358C27.9093 53.9901 26.5986 50.2163 26.5986 45.0561V0.078125H0V45.2872C0 57.3789 7.40135 77.3263 35.6961 77.3263H37.3923C65.4557 77.1722 72.8571 57.3018 72.8571 45.2872V0.078125H46.2585V45.0561ZM52.4262 45.2102V6.54756H66.6122V44.9021C66.6122 50.0622 64.6847 70.7028 37.3152 70.8568H35.6961C8.09523 70.8568 6.16779 50.0622 6.16779 44.9021V6.54756H20.3537V45.2102C20.3537 47.9828 19.9682 59.7664 35.8503 60.3825H36.39C52.8117 59.7664 52.4262 47.9828 52.4262 45.2102Z" fill="#0075C9"/>
<path d="M177.093 31.3454V47.9811H189.66C189.66 47.9811 186.961 54.9126 177.401 54.9126C169.306 54.9126 162.367 48.1351 162.367 38.585C162.367 29.0349 166.993 22.1803 177.401 22.1803C179.483 22.1803 183.492 22.6424 191.279 26.1852L215.95 19.0226C215.95 19.0226 207.623 0.230469 177.324 0.230469C165.143 0.230469 156.122 3.69624 149.106 9.70357C140.626 17.0202 136.154 28.8038 136.154 38.585C136.154 47.827 139.392 58.7635 149.184 67.5434C155.583 73.3197 164.988 77.0165 177.401 77.0165C186.422 77.0165 198.449 74.629 205.388 67.7745C213.251 59.9957 218.802 50.6767 218.802 38.662V31.3454H177.093ZM212.558 41.5116C212.403 42.6669 212.326 43.8222 211.941 45.3625C211.401 47.673 210.399 50.3686 208.857 53.2953C207.161 56.53 204.694 59.9187 201.147 63.3845C196.29 67.9285 187.038 70.8552 177.478 70.8552C150.417 70.8552 142.168 51.1388 142.168 38.739C142.168 32.1926 145.252 20.9481 153.501 14.1706C158.975 9.62656 165.837 6.62289 177.401 6.62289C197.909 6.62289 205.31 15.7879 205.31 15.7879L191.741 19.7158C191.741 19.7158 184.109 16.096 177.401 16.096C165.759 16.096 156.276 23.4126 156.276 38.739C156.276 45.7476 160.825 61.305 177.401 61.305C186.422 61.305 196.984 55.6058 196.984 41.8197H183.106V37.6608H212.635C212.635 37.5838 212.789 39.2011 212.558 41.5116Z" fill="#0075C9"/>
<path d="M36.4671 60.3818H35.9274C20.0453 59.7657 20.4308 47.9821 20.4308 45.2095V6.54688H6.24487V44.9014C6.24487 50.0615 8.17231 70.8562 35.7732 70.8562H37.3922C64.7618 70.7021 66.6892 50.0615 66.6892 44.9014V6.54688H52.4262V45.2095C52.4262 47.9821 52.8117 59.7657 36.4671 60.3818Z" fill="#F18A00"/>
<path d="M183.106 37.5859V41.8218H196.984C196.984 55.5309 186.422 61.3072 177.401 61.3072C160.825 61.3072 156.277 45.7497 156.277 38.7411C156.277 23.4147 165.76 16.0981 177.401 16.0981C184.109 16.0981 191.741 19.7179 191.741 19.7179L205.311 15.79C205.311 15.79 197.909 6.625 177.401 6.625C165.76 6.625 158.975 9.70568 153.501 14.1727C145.252 20.9502 142.168 32.1947 142.168 38.7411C142.168 51.1409 150.417 70.8573 177.478 70.8573C187.038 70.8573 196.29 67.9306 201.147 63.3866C204.694 59.9979 207.161 56.5321 208.857 53.2974C210.399 50.3707 211.401 47.6751 211.941 45.3646C212.326 43.8243 212.481 42.669 212.558 41.5138C212.789 39.2032 212.635 37.5859 212.635 37.5859H183.106Z" fill="#F18A00"/>
<path d="M100.381 43.5921H123.51V36.3525H100.381V13.7865H125.746V6.54688H86.5033V70.8562H100.381V43.5921Z" fill="#F18A00"/>
</svg>
