<svg width="210" height="38" viewBox="0 0 210 38" fill="none" xmlns="http://www.w3.org/2000/svg">
<path d="M100.85 3.62659V8.1046C100.85 8.7353 100.944 9.20833 101.165 9.49215C101.48 9.93364 101.953 10.1229 102.553 10.1229C103.152 10.1229 103.593 9.90211 103.94 9.49215C104.161 9.20833 104.255 8.7353 104.255 8.1046V3.62659H105.422V8.41995C105.422 9.20833 105.17 9.83904 104.665 10.3436C104.098 10.9112 103.404 11.1951 102.553 11.1951C101.701 11.1951 101.007 10.9112 100.44 10.3436C99.9351 9.83904 99.6829 9.1768 99.6829 8.41995V3.62659H100.85Z" fill="white"/>
<path d="M107.283 11.0688V3.12195L112.959 8.7983V3.62651H114.126V11.5103L108.481 5.86552V11.0688H107.283Z" fill="white"/>
<path d="M117.154 3.62659H115.987V11.0689H117.154V3.62659Z" fill="white"/>
<path d="M119.424 3.62659L121.568 8.79837L123.776 3.62659H125.037L121.568 11.6365L118.163 3.62659H119.424Z" fill="white"/>
<path d="M130.304 4.69879H127.182V6.46476H130.209V7.53696H127.182V10.0282H130.304V11.0689H126.015V3.62659H130.304V4.69879Z" fill="white"/>
<path d="M134.466 7.91538L136.863 11.1004H135.412L133.205 8.07306H132.984V11.1004H131.817V3.62659H133.205C134.245 3.62659 134.971 3.8158 135.444 4.19422C135.948 4.60418 136.201 5.14028 136.201 5.83406C136.201 6.37016 136.043 6.81165 135.728 7.19007C135.412 7.5685 135.002 7.78924 134.466 7.91538ZM133.015 7.06393H133.394C134.498 7.06393 135.065 6.65397 135.065 5.83406C135.065 5.07721 134.529 4.69879 133.457 4.69879H133.047V7.06393H133.015Z" fill="white"/>
<path d="M142.445 4.73024L141.499 5.26634C141.309 4.98252 141.152 4.76178 140.994 4.69871C140.836 4.6041 140.616 4.54103 140.332 4.54103C140.017 4.54103 139.733 4.63564 139.512 4.79331C139.291 4.98252 139.197 5.17174 139.197 5.45555C139.197 5.80244 139.48 6.11779 140.048 6.33854L140.836 6.65389C141.467 6.90618 141.94 7.18999 142.224 7.53688C142.508 7.88377 142.665 8.32526 142.665 8.82983C142.665 9.5236 142.445 10.0912 141.94 10.5327C141.467 10.9742 140.868 11.195 140.143 11.195C139.48 11.195 138.913 11.0058 138.471 10.6273C138.03 10.2489 137.778 9.71281 137.651 9.01904L138.85 8.76676C138.913 9.20825 139.007 9.49207 139.134 9.68128C139.386 9.99663 139.733 10.1543 140.174 10.1543C140.553 10.1543 140.836 10.0282 141.089 9.80742C141.341 9.58667 141.467 9.27132 141.467 8.92443C141.467 8.76676 141.436 8.64062 141.404 8.51447C141.373 8.38833 141.309 8.29373 141.215 8.16759C141.12 8.07298 141.026 7.97837 140.868 7.88377C140.71 7.78916 140.553 7.72609 140.363 7.63149L139.607 7.34767C138.534 6.90618 137.998 6.27547 137.998 5.45555C137.998 4.88792 138.219 4.41489 138.66 4.068C139.102 3.68958 139.67 3.50037 140.332 3.50037C141.246 3.50037 141.94 3.91032 142.445 4.73024Z" fill="white"/>
<path d="M145.22 3.62659H144.053V11.0689H145.22V3.62659Z" fill="white"/>
<path d="M147.112 11.0689V3.62659H148.752C149.54 3.62659 150.139 3.68966 150.612 3.84733C151.085 3.97347 151.527 4.22576 151.937 4.57265C152.725 5.26642 153.135 6.18094 153.135 7.31621C153.135 8.45148 152.725 9.39754 151.874 10.0913C151.464 10.4382 151.022 10.6905 150.549 10.8166C150.108 10.9428 149.508 11.0374 148.72 11.0374H147.112V11.0689ZM148.279 10.0282H148.815C149.351 10.0282 149.792 9.96518 150.139 9.87057C150.486 9.74443 150.801 9.58675 151.085 9.33447C151.653 8.82991 151.937 8.16767 151.937 7.37928C151.937 6.55937 151.653 5.89713 151.085 5.39256C150.581 4.95107 149.824 4.69879 148.815 4.69879H148.279V10.0282Z" fill="white"/>
<path d="M158.78 9.27128H155.438L154.586 11.0688H153.325L157.172 3.15344L160.893 11.0688H159.6L158.78 9.27128ZM158.307 8.19909L157.14 5.67626L155.942 8.19909H158.307Z" fill="white"/>
<path d="M161.839 11.0689V3.62659H163.479C164.267 3.62659 164.866 3.68966 165.34 3.84733C165.813 3.97347 166.254 4.22576 166.664 4.57265C167.452 5.26642 167.862 6.18094 167.862 7.31621C167.862 8.45148 167.452 9.39754 166.601 10.0913C166.191 10.4382 165.749 10.6905 165.276 10.8166C164.835 10.9428 164.236 11.0374 163.447 11.0374H161.839V11.0689ZM163.006 10.0282H163.542C164.078 10.0282 164.52 9.96518 164.866 9.87057C165.213 9.74443 165.529 9.58675 165.813 9.33447C166.38 8.82991 166.664 8.16767 166.664 7.37928C166.664 6.55937 166.38 5.89713 165.813 5.39256C165.308 4.95107 164.551 4.69879 163.542 4.69879H163.006V10.0282Z" fill="white"/>
<path d="M103.688 15.2H100.881V17.0606H103.562V18.1328H100.881V21.7909H99.6516V14.0963H103.688V15.2Z" fill="white"/>
<path d="M107.787 18.5113L110.279 21.7909H108.796L106.494 18.6374H106.274V21.7909H105.044V14.0963H106.463C107.535 14.0963 108.292 14.2855 108.765 14.6639C109.301 15.1054 109.553 15.6415 109.553 16.3353C109.553 16.8714 109.396 17.3444 109.049 17.7544C108.765 18.1644 108.323 18.4166 107.787 18.5113ZM106.305 17.6283H106.684C107.819 17.6283 108.418 17.2183 108.418 16.3669C108.418 15.5785 107.85 15.2 106.747 15.2H106.305V17.6283Z" fill="white"/>
<path d="M116.208 19.9303H112.77L111.887 21.7909H110.594L114.568 13.6233L118.415 21.7909H117.09L116.208 19.9303ZM115.734 18.8581L114.536 16.2407L113.275 18.8581H115.734Z" fill="white"/>
<path d="M119.392 21.791V13.5918L125.258 19.4574V14.0964H126.488V22.264L120.622 16.43V21.791H119.392Z" fill="white"/>
<path d="M134.435 14.5378V15.9254C133.741 15.3578 133.016 15.0739 132.259 15.0739C131.439 15.0739 130.745 15.3578 130.178 15.9254C129.61 16.493 129.326 17.1868 129.326 18.0067C129.326 18.8266 129.61 19.4889 130.178 20.0565C130.745 20.6242 131.439 20.8764 132.259 20.8764C132.669 20.8764 133.047 20.8134 133.331 20.6872C133.489 20.6242 133.678 20.5295 133.836 20.4034C134.025 20.2773 134.214 20.1511 134.403 19.9935V21.381C133.71 21.7594 132.984 21.9486 132.228 21.9486C131.092 21.9486 130.083 21.5702 129.295 20.8134C128.475 20.025 128.096 19.1105 128.096 18.0067C128.096 17.0291 128.443 16.1461 129.106 15.3893C129.925 14.4432 131.029 13.9702 132.354 13.9702C133.047 13.9702 133.741 14.1594 134.435 14.5378Z" fill="white"/>
<path d="M137.147 14.0963H135.949V21.7909H137.147V14.0963Z" fill="white"/>
<path d="M143.643 15.2631L142.665 15.8307C142.476 15.5154 142.318 15.3262 142.129 15.2316C141.972 15.137 141.719 15.0739 141.467 15.0739C141.12 15.0739 140.836 15.1685 140.616 15.3577C140.395 15.5469 140.269 15.7677 140.269 16.0515C140.269 16.4299 140.553 16.7137 141.152 16.966L141.94 17.2814C142.602 17.5336 143.075 17.849 143.391 18.1959C143.706 18.5743 143.832 19.0158 143.832 19.5204C143.832 20.2141 143.58 20.8133 143.107 21.2863C142.602 21.7594 142.003 21.9801 141.246 21.9801C140.553 21.9801 139.985 21.7909 139.512 21.3809C139.07 20.971 138.787 20.4349 138.66 19.7096L139.89 19.4573C139.953 19.8988 140.048 20.2141 140.174 20.4033C140.426 20.7187 140.773 20.9079 141.278 20.9079C141.656 20.9079 141.972 20.7818 142.224 20.5295C142.476 20.2772 142.602 19.9934 142.602 19.615C142.602 19.4573 142.571 19.3311 142.539 19.205C142.476 19.0789 142.413 18.9527 142.318 18.8581C142.224 18.7635 142.098 18.6689 141.972 18.5743C141.814 18.4797 141.656 18.3851 141.467 18.322L140.679 18.0067C139.575 17.5652 139.039 16.9029 139.039 16.0515C139.039 15.4838 139.26 14.9793 139.733 14.6009C140.206 14.2224 140.773 14.0017 141.467 14.0017C142.413 13.9702 143.138 14.3801 143.643 15.2631Z" fill="white"/>
<path d="M151.275 14.5378V15.9254C150.581 15.3578 149.855 15.0739 149.099 15.0739C148.279 15.0739 147.585 15.3578 147.017 15.9254C146.45 16.493 146.166 17.1868 146.166 18.0067C146.166 18.8266 146.45 19.4889 147.017 20.0565C147.585 20.6242 148.279 20.8764 149.099 20.8764C149.54 20.8764 149.887 20.8134 150.202 20.6872C150.36 20.6242 150.549 20.5295 150.707 20.4034C150.896 20.2773 151.085 20.1511 151.275 19.9935V21.381C150.581 21.7594 149.855 21.9486 149.099 21.9486C147.963 21.9486 146.954 21.5702 146.166 20.8134C145.346 20.025 144.968 19.1105 144.968 18.0067C144.968 17.0291 145.314 16.1461 145.977 15.3893C146.797 14.4432 147.9 13.9702 149.225 13.9702C149.887 13.9702 150.581 14.1594 151.275 14.5378Z" fill="white"/>
<path d="M152.347 17.9121C152.347 16.8399 152.757 15.8939 153.577 15.137C154.397 14.3486 155.406 13.9702 156.541 13.9702C157.676 13.9702 158.654 14.3486 159.505 15.137C160.325 15.9254 160.735 16.8715 160.735 17.9752C160.735 19.0789 160.325 20.025 159.505 20.7818C158.686 21.5702 157.676 21.9486 156.51 21.9486C155.469 21.9486 154.523 21.6018 153.703 20.908C152.788 20.1511 152.347 19.142 152.347 17.9121ZM153.577 17.9437C153.577 18.7951 153.892 19.4889 154.46 20.0565C155.059 20.5926 155.721 20.8764 156.51 20.8764C157.361 20.8764 158.055 20.5926 158.654 20.025C159.222 19.4574 159.537 18.7636 159.537 17.9752C159.537 17.1553 159.253 16.4615 158.686 15.9254C158.118 15.3578 157.424 15.0739 156.573 15.0739C155.753 15.0739 155.027 15.3578 154.46 15.9254C153.861 16.43 153.577 17.1237 153.577 17.9437Z" fill="white"/>
<path d="M169.691 17.786H173.002V18.0383C173.002 18.6059 172.939 19.142 172.782 19.5835C172.656 19.9935 172.403 20.3719 172.088 20.7503C171.331 21.5387 170.385 21.9486 169.25 21.9486C168.114 21.9486 167.168 21.5702 166.348 20.7818C165.56 19.9935 165.15 19.0789 165.15 17.9752C165.15 16.8715 165.56 15.9254 166.38 15.137C167.2 14.3486 168.178 13.9702 169.376 13.9702C170.007 13.9702 170.574 14.0964 171.142 14.3486C171.646 14.6009 172.182 14.9793 172.687 15.547L171.836 16.3354C171.173 15.4839 170.385 15.0739 169.439 15.0739C168.587 15.0739 167.862 15.3578 167.295 15.9254C166.727 16.493 166.443 17.1553 166.443 18.0067C166.443 18.8582 166.758 19.5835 167.389 20.1196C167.988 20.6242 168.651 20.8764 169.344 20.8764C169.944 20.8764 170.48 20.6872 170.953 20.3088C171.426 19.9304 171.709 19.4574 171.741 18.9213H169.723V17.786H169.691Z" fill="white"/>
<path d="M178.899 19.9303H175.462L174.579 21.7909H173.286L177.228 13.6233L181.075 21.7909H179.751L178.899 19.9303ZM178.395 18.8581L177.197 16.2407L175.935 18.8581H178.395Z" fill="white"/>
<path d="M181.864 14.0963L184.071 19.4258L186.342 14.0963H187.666L184.04 22.3901L180.539 14.0963H181.864Z" fill="white"/>
<path d="M189.874 14.0963H188.676V21.7909H189.874V14.0963Z" fill="white"/>
<path d="M191.798 21.7909V14.0963H193.501C194.32 14.0963 194.951 14.1594 195.424 14.3171C195.929 14.4747 196.37 14.727 196.78 15.0739C197.6 15.7992 198.01 16.7453 198.01 17.9436C198.01 19.1104 197.569 20.088 196.717 20.8133C196.276 21.1918 195.834 21.444 195.361 21.5702C194.92 21.6963 194.289 21.7909 193.469 21.7909H191.798ZM193.027 20.7187H193.564C194.1 20.7187 194.573 20.6556 194.92 20.561C195.298 20.4349 195.613 20.2457 195.897 19.9934C196.496 19.4573 196.78 18.7951 196.78 17.9436C196.78 17.0922 196.496 16.4299 195.897 15.8938C195.361 15.4208 194.573 15.2 193.564 15.2H193.027V20.7187Z" fill="white"/>
<path d="M200.754 14.0963H199.555V21.7909H200.754V14.0963Z" fill="white"/>
<path d="M207.439 19.9303H204.002L203.119 21.7909H201.826L205.799 13.6233L209.646 21.7909H208.322L207.439 19.9303ZM206.934 18.8581L205.736 16.2407L204.475 18.8581H206.934Z" fill="white"/>
<path d="M99.7776 33.4273V29.4539H101.26C101.512 29.4539 101.733 29.4539 101.859 29.4854C102.048 29.5169 102.206 29.58 102.332 29.6746C102.458 29.7692 102.553 29.8954 102.647 30.053C102.742 30.2107 102.773 30.3999 102.773 30.5891C102.773 30.936 102.679 31.2198 102.458 31.4406C102.237 31.6613 101.859 31.7875 101.291 31.7875H100.282V33.3958H99.7776V33.4273ZM100.282 31.346H101.291C101.638 31.346 101.859 31.2829 102.017 31.1568C102.143 31.0306 102.237 30.8414 102.237 30.6207C102.237 30.463 102.206 30.3053 102.111 30.2107C102.017 30.0846 101.922 30.0215 101.796 29.99C101.701 29.9584 101.544 29.9584 101.323 29.9584H100.282V31.346Z" fill="white"/>
<path d="M103.215 31.9768C103.215 31.4407 103.373 31.0623 103.656 30.81C103.909 30.5892 104.192 30.4946 104.571 30.4946C104.949 30.4946 105.296 30.6208 105.548 30.8731C105.801 31.1253 105.927 31.4722 105.927 31.9453C105.927 32.3237 105.864 32.6075 105.769 32.8282C105.643 33.049 105.485 33.2067 105.296 33.3328C105.075 33.4589 104.855 33.522 104.602 33.522C104.192 33.522 103.877 33.3959 103.625 33.1436C103.341 32.8282 103.215 32.4814 103.215 31.9768ZM103.719 31.9768C103.719 32.3552 103.814 32.6075 103.972 32.7967C104.129 32.9859 104.319 33.0805 104.571 33.0805C104.823 33.0805 105.012 32.9859 105.17 32.7967C105.328 32.6075 105.422 32.3237 105.422 31.9453C105.422 31.5984 105.328 31.3145 105.17 31.1569C105.012 30.9677 104.823 30.8731 104.571 30.8731C104.319 30.8731 104.129 30.9677 103.972 31.1569C103.782 31.3461 103.719 31.6299 103.719 31.9768Z" fill="white"/>
<path d="M106.999 33.4274L106.116 30.5577H106.621L107.063 32.1975L107.22 32.7967C107.22 32.7651 107.283 32.5759 107.378 32.1975L107.819 30.5261H108.324L108.765 32.1975L108.923 32.7336L109.081 32.166L109.585 30.5261H110.058L109.175 33.3958H108.671L108.229 31.6929L108.103 31.2199L107.536 33.4274H106.999Z" fill="white"/>
<path d="M112.392 32.4814L112.896 32.5444C112.802 32.8282 112.676 33.049 112.455 33.2382C112.234 33.3959 111.982 33.4905 111.635 33.4905C111.225 33.4905 110.878 33.3643 110.626 33.1121C110.373 32.8598 110.247 32.4814 110.247 32.0399C110.247 31.5668 110.373 31.1884 110.626 30.9046C110.878 30.6523 111.193 30.4946 111.603 30.4946C111.982 30.4946 112.297 30.6208 112.549 30.8731C112.802 31.1253 112.928 31.5038 112.928 31.9768C112.928 32.0083 112.928 32.0399 112.928 32.1029H110.783C110.815 32.4183 110.878 32.6706 111.036 32.8282C111.193 32.9859 111.383 33.0805 111.635 33.0805C111.824 33.0805 111.95 33.049 112.076 32.9544C112.234 32.8598 112.329 32.7021 112.392 32.4814ZM110.815 31.7245H112.423C112.392 31.4722 112.329 31.3145 112.234 31.1884C112.076 30.9992 111.887 30.9046 111.635 30.9046C111.414 30.9046 111.225 30.9677 111.067 31.1253C110.91 31.2515 110.815 31.4722 110.815 31.7245Z" fill="white"/>
<path d="M113.496 33.4274V30.5577H113.937V30.9992C114.063 30.81 114.158 30.6523 114.252 30.5892C114.347 30.5262 114.442 30.4946 114.568 30.4946C114.725 30.4946 114.883 30.5577 115.072 30.6523L114.915 31.0938C114.789 31.0307 114.662 30.9992 114.568 30.9992C114.473 30.9992 114.379 31.0307 114.284 31.0938C114.189 31.1569 114.126 31.2515 114.095 31.3461C114.032 31.5038 114 31.693 114 31.9137V33.3959H113.496V33.4274Z" fill="white"/>
<path d="M117.311 32.4814L117.816 32.5444C117.721 32.8282 117.595 33.049 117.374 33.2382C117.153 33.3959 116.901 33.4905 116.554 33.4905C116.144 33.4905 115.797 33.3643 115.545 33.1121C115.293 32.8598 115.167 32.4814 115.167 32.0399C115.167 31.5668 115.293 31.1884 115.545 30.9046C115.797 30.6523 116.113 30.4946 116.523 30.4946C116.901 30.4946 117.217 30.6208 117.469 30.8731C117.721 31.1253 117.847 31.5038 117.847 31.9768C117.847 32.0083 117.847 32.0399 117.847 32.1029H115.703C115.734 32.4183 115.797 32.6706 115.955 32.8282C116.113 32.9859 116.302 33.0805 116.554 33.0805C116.744 33.0805 116.87 33.049 116.996 32.9544C117.122 32.8598 117.248 32.7021 117.311 32.4814ZM115.703 31.7245H117.311C117.28 31.4722 117.217 31.3145 117.122 31.1884C116.964 30.9992 116.775 30.9046 116.523 30.9046C116.302 30.9046 116.113 30.9677 115.955 31.1253C115.829 31.2515 115.734 31.4722 115.703 31.7245Z" fill="white"/>
<path d="M120.276 33.4273V33.0805C120.086 33.3643 119.834 33.4904 119.487 33.4904C119.266 33.4904 119.046 33.4273 118.856 33.3012C118.667 33.1751 118.51 32.9858 118.415 32.7651C118.32 32.5444 118.257 32.2921 118.257 31.9767C118.257 31.6929 118.32 31.4406 118.415 31.1883C118.51 30.9676 118.667 30.7784 118.856 30.6522C119.046 30.5261 119.266 30.463 119.487 30.463C119.645 30.463 119.803 30.4946 119.96 30.5576C120.086 30.6207 120.213 30.7153 120.276 30.8415V29.4224H120.749V33.4273H120.276ZM118.73 31.9767C118.73 32.3551 118.793 32.6074 118.951 32.7966C119.109 32.9858 119.298 33.0805 119.487 33.0805C119.708 33.0805 119.866 32.9858 120.023 32.8282C120.181 32.6705 120.244 32.3867 120.244 32.0398C120.244 31.6614 120.181 31.346 120.023 31.1883C119.866 30.9991 119.676 30.9045 119.456 30.9045C119.235 30.9045 119.046 30.9991 118.92 31.1568C118.825 31.346 118.73 31.5983 118.73 31.9767Z" fill="white"/>
<path d="M123.461 33.4273H123.019V29.4539H123.492V30.8729C123.681 30.6207 123.965 30.4945 124.28 30.4945C124.47 30.4945 124.627 30.5261 124.785 30.5891C124.943 30.6522 125.069 30.7468 125.163 30.8729C125.258 30.9991 125.353 31.1568 125.416 31.346C125.479 31.5352 125.51 31.7244 125.51 31.9136C125.51 32.4182 125.384 32.7966 125.132 33.0489C124.88 33.3012 124.596 33.4588 124.249 33.4588C123.902 33.4588 123.65 33.3327 123.461 33.0489V33.4273ZM123.461 31.9767C123.461 32.3236 123.492 32.5759 123.587 32.7335C123.744 32.9858 123.934 33.1119 124.217 33.1119C124.438 33.1119 124.627 33.0173 124.753 32.8281C124.911 32.6389 124.974 32.3551 124.974 32.0082C124.974 31.6298 124.911 31.346 124.753 31.1883C124.596 31.0306 124.438 30.936 124.217 30.936C123.997 30.936 123.807 31.0306 123.681 31.2198C123.524 31.346 123.461 31.6298 123.461 31.9767Z" fill="white"/>
<path d="M126.078 34.5312L126.015 34.0897C126.11 34.1212 126.204 34.1212 126.299 34.1212C126.393 34.1212 126.488 34.0897 126.551 34.0582C126.614 34.0266 126.677 33.9635 126.709 33.9005C126.74 33.8374 126.803 33.7428 126.866 33.5536C126.866 33.5221 126.898 33.4905 126.898 33.4274L125.826 30.5577H126.362L126.961 32.2291C127.024 32.4499 127.119 32.6706 127.182 32.8913C127.245 32.6706 127.308 32.4499 127.371 32.2291L127.97 30.5577H128.443L127.339 33.459C127.213 33.7743 127.119 33.9951 127.056 34.1212C126.961 34.2789 126.866 34.405 126.772 34.4681C126.646 34.5312 126.519 34.5943 126.362 34.5943C126.299 34.5627 126.173 34.5627 126.078 34.5312Z" fill="white"/>
<path d="M135.286 33.4274H134.214L133.773 32.2921H131.817L131.407 33.4274H130.335L132.259 28.4763H133.3L135.286 33.4274ZM133.457 31.4722L132.763 29.6431L132.101 31.4722H133.457Z" fill="white"/>
<path d="M136.737 33.4274H135.791V29.8324H136.674V30.337C136.831 30.0847 136.958 29.927 137.084 29.8639C137.21 29.8009 137.336 29.7378 137.494 29.7378C137.714 29.7378 137.904 29.8009 138.124 29.927L137.841 30.7469C137.683 30.6523 137.525 30.5892 137.399 30.5892C137.273 30.5892 137.147 30.6208 137.052 30.6839C136.958 30.7469 136.895 30.8731 136.831 31.0938C136.768 31.283 136.737 31.693 136.737 32.2921V33.4274Z" fill="white"/>
<path d="M138.503 29.3593V28.4763H139.449V29.3593H138.503ZM138.503 33.4274V29.8323H139.449V33.4274H138.503Z" fill="white"/>
<path d="M140.048 33.4274V32.7021L141.373 31.1569C141.594 30.9046 141.751 30.7154 141.846 30.6208C141.751 30.6208 141.594 30.6208 141.404 30.6208H140.143V29.8324H143.107V30.4946L141.751 32.0714L141.278 32.6075C141.53 32.6075 141.688 32.576 141.751 32.576H143.202V33.3959H140.048V33.4274Z" fill="white"/>
<path d="M143.643 31.5668C143.643 31.2514 143.706 30.9361 143.864 30.6523C144.022 30.3685 144.242 30.1477 144.526 29.99C144.81 29.8324 145.125 29.7693 145.472 29.7693C146.008 29.7693 146.45 29.9585 146.797 30.3054C147.144 30.6523 147.301 31.0938 147.301 31.6299C147.301 32.166 147.112 32.6075 146.765 32.9859C146.418 33.3328 145.977 33.522 145.441 33.522C145.125 33.522 144.81 33.4589 144.495 33.3012C144.211 33.1436 143.959 32.9228 143.801 32.639C143.738 32.3236 143.643 31.9768 143.643 31.5668ZM144.621 31.6299C144.621 31.9768 144.716 32.2606 144.873 32.4498C145.031 32.639 145.252 32.7336 145.504 32.7336C145.756 32.7336 145.945 32.639 146.135 32.4498C146.292 32.2606 146.387 31.9768 146.387 31.6299C146.387 31.283 146.292 30.9992 146.135 30.8099C145.977 30.6207 145.756 30.5261 145.504 30.5261C145.252 30.5261 145.062 30.6207 144.873 30.8099C144.716 30.9992 144.621 31.283 144.621 31.6299Z" fill="white"/>
<path d="M151.338 33.4274H150.392V31.5983C150.392 31.2199 150.36 30.9676 150.329 30.8415C150.297 30.7153 150.234 30.6523 150.14 30.5892C150.045 30.5261 149.95 30.4946 149.824 30.4946C149.667 30.4946 149.509 30.5261 149.383 30.6207C149.257 30.7153 149.162 30.8415 149.13 30.9676C149.067 31.1253 149.067 31.3776 149.067 31.7875V33.3958H148.121V29.8324H149.004V30.3685C149.32 29.9585 149.698 29.7693 150.171 29.7693C150.392 29.7693 150.581 29.8008 150.739 29.8954C150.896 29.9585 151.054 30.0531 151.117 30.1792C151.212 30.3054 151.275 30.4315 151.306 30.5892C151.338 30.7469 151.369 30.9361 151.369 31.2199V33.4274H151.338Z" fill="white"/>
<path d="M153.009 30.9361L152.157 30.7784C152.252 30.4315 152.41 30.1792 152.662 30.0216C152.883 29.8639 153.261 29.7693 153.703 29.7693C154.113 29.7693 154.428 29.8324 154.649 29.927C154.869 30.0216 154.996 30.1477 155.09 30.3054C155.185 30.4631 155.216 30.7469 155.216 31.1568V32.2606C155.216 32.5759 155.216 32.7967 155.248 32.9543C155.279 33.112 155.342 33.2697 155.406 33.4274H154.459C154.428 33.3643 154.396 33.2697 154.365 33.1436C154.333 33.0805 154.333 33.049 154.333 33.0174C154.176 33.1751 153.986 33.3012 153.829 33.3643C153.64 33.4274 153.45 33.4904 153.23 33.4904C152.851 33.4904 152.567 33.3958 152.347 33.1751C152.126 32.9859 152.031 32.7336 152.031 32.4183C152.031 32.229 152.094 32.0398 152.189 31.8821C152.284 31.7245 152.41 31.5983 152.599 31.5037C152.788 31.4091 153.009 31.346 153.356 31.283C153.797 31.1884 154.113 31.1253 154.27 31.0622V30.9676C154.27 30.7784 154.239 30.6523 154.144 30.5892C154.05 30.5261 153.892 30.4631 153.64 30.4631C153.482 30.4631 153.324 30.4946 153.261 30.5577C153.198 30.6207 153.072 30.7784 153.009 30.9361ZM154.27 31.6929C154.144 31.7245 153.955 31.7875 153.703 31.8506C153.45 31.9137 153.261 31.9768 153.198 32.0083C153.072 32.1029 153.009 32.1975 153.009 32.3552C153.009 32.4813 153.072 32.6075 153.167 32.7021C153.261 32.7967 153.387 32.8597 153.545 32.8597C153.703 32.8597 153.892 32.7967 154.018 32.7021C154.144 32.6075 154.207 32.5129 154.239 32.3867C154.27 32.2921 154.27 32.166 154.27 31.9137V31.6929Z" fill="white"/>
<path d="M157.803 31.8191L158.78 31.7245C158.843 32.0398 158.97 32.2921 159.127 32.4498C159.316 32.6075 159.537 32.6705 159.853 32.6705C160.168 32.6705 160.42 32.6075 160.578 32.4813C160.736 32.3552 160.83 32.1975 160.83 32.0083C160.83 31.8822 160.799 31.7876 160.736 31.7245C160.672 31.6299 160.546 31.5668 160.389 31.5037C160.262 31.4722 160.01 31.3776 159.6 31.283C159.064 31.1569 158.686 30.9992 158.465 30.81C158.15 30.5262 158.023 30.2108 158.023 29.8008C158.023 29.5486 158.087 29.3278 158.244 29.1071C158.402 28.8863 158.591 28.7286 158.875 28.6025C159.159 28.4764 159.474 28.4448 159.853 28.4448C160.483 28.4448 160.925 28.571 161.24 28.8548C161.555 29.1386 161.713 29.4855 161.745 29.927L160.736 29.9585C160.704 29.7062 160.609 29.517 160.452 29.4224C160.326 29.2963 160.105 29.2647 159.821 29.2647C159.537 29.2647 159.316 29.3278 159.127 29.454C159.033 29.517 158.97 29.6432 158.97 29.7693C158.97 29.8954 159.033 29.9901 159.127 30.0847C159.253 30.1793 159.569 30.3054 160.042 30.4C160.515 30.5262 160.893 30.6208 161.114 30.7469C161.335 30.873 161.524 31.0307 161.65 31.2515C161.776 31.4722 161.839 31.7245 161.839 32.0398C161.839 32.3237 161.776 32.5759 161.619 32.8282C161.461 33.0805 161.24 33.2697 160.956 33.3643C160.672 33.4905 160.326 33.5535 159.884 33.5535C159.253 33.5535 158.78 33.3959 158.433 33.112C158.055 32.7967 157.866 32.3552 157.803 31.8191Z" fill="white"/>
<path d="M164.299 29.8324V30.5892H163.637V32.0398C163.637 32.3237 163.637 32.5129 163.668 32.5444C163.668 32.6075 163.7 32.639 163.763 32.6705C163.794 32.7021 163.857 32.7021 163.92 32.7021C164.015 32.7021 164.141 32.6705 164.299 32.6075L164.393 33.3328C164.173 33.4274 163.92 33.4589 163.637 33.4589C163.479 33.4589 163.321 33.4274 163.164 33.3643C163.037 33.3013 162.911 33.2382 162.848 33.1436C162.785 33.049 162.754 32.9228 162.722 32.7652C162.691 32.6705 162.691 32.4183 162.691 32.1029V30.5892H162.249V29.8324H162.691V29.1071L163.637 28.5394V29.8008H164.299V29.8324Z" fill="white"/>
<path d="M165.655 30.9361L164.803 30.7784C164.898 30.4315 165.056 30.1792 165.308 30.0216C165.529 29.8639 165.907 29.7693 166.349 29.7693C166.759 29.7693 167.074 29.8324 167.295 29.927C167.515 30.0216 167.642 30.1477 167.736 30.3054C167.831 30.4631 167.862 30.7469 167.862 31.1568V32.2606C167.862 32.5759 167.862 32.7967 167.894 32.9543C167.925 33.112 167.988 33.2697 168.052 33.4274H167.105C167.074 33.3643 167.042 33.2697 167.011 33.1436C166.979 33.0805 166.979 33.049 166.979 33.0174C166.822 33.1751 166.632 33.3012 166.475 33.3643C166.286 33.4274 166.096 33.4904 165.876 33.4904C165.497 33.4904 165.213 33.3958 164.993 33.1751C164.772 32.9859 164.677 32.7336 164.677 32.4183C164.677 32.229 164.74 32.0398 164.835 31.8821C164.93 31.7245 165.056 31.5983 165.245 31.5037C165.434 31.4091 165.655 31.346 166.002 31.283C166.443 31.1884 166.759 31.1253 166.916 31.0622V30.9676C166.916 30.7784 166.885 30.6523 166.79 30.5892C166.696 30.5261 166.538 30.4631 166.286 30.4631C166.128 30.4631 165.97 30.4946 165.907 30.5577C165.781 30.6523 165.718 30.7784 165.655 30.9361ZM166.916 31.6929C166.79 31.7245 166.601 31.7875 166.349 31.8506C166.096 31.9137 165.907 31.9768 165.844 32.0083C165.718 32.1029 165.655 32.1975 165.655 32.3552C165.655 32.4813 165.718 32.6075 165.813 32.7021C165.907 32.7967 166.033 32.8597 166.191 32.8597C166.349 32.8597 166.538 32.7967 166.664 32.7021C166.79 32.6075 166.853 32.5129 166.885 32.3867C166.916 32.2921 166.916 32.166 166.916 31.9137V31.6929Z" fill="white"/>
<path d="M170.416 29.8324V30.5892H169.754V32.0398C169.754 32.3237 169.754 32.5129 169.786 32.5444C169.786 32.6075 169.817 32.639 169.88 32.6705C169.912 32.7021 169.975 32.7021 170.038 32.7021C170.133 32.7021 170.259 32.6705 170.416 32.6075L170.511 33.3328C170.29 33.4274 170.038 33.4589 169.754 33.4589C169.597 33.4589 169.439 33.4274 169.281 33.3643C169.155 33.3013 169.029 33.2382 168.966 33.1436C168.903 33.049 168.871 32.9228 168.84 32.7652C168.808 32.6705 168.808 32.4183 168.808 32.1029V30.5892H168.398V29.8324H168.84V29.1071L169.786 28.5394V29.8008H170.416V29.8324Z" fill="white"/>
<path d="M173.161 32.2921L174.107 32.4497C173.98 32.7966 173.791 33.0489 173.539 33.2381C173.287 33.4273 172.94 33.5219 172.561 33.5219C171.931 33.5219 171.489 33.3327 171.174 32.9228C170.953 32.6074 170.827 32.1975 170.827 31.6929C170.827 31.0937 170.985 30.6207 171.3 30.3053C171.615 29.9585 171.994 29.8008 172.467 29.8008C173.003 29.8008 173.413 29.99 173.728 30.3369C174.044 30.6838 174.17 31.2199 174.17 31.9452H171.804C171.804 32.229 171.899 32.4497 172.025 32.6074C172.183 32.7651 172.341 32.8282 172.561 32.8282C172.719 32.8282 172.845 32.7966 172.94 32.702C173.034 32.5759 173.097 32.4497 173.161 32.2921ZM173.192 31.3145C173.192 31.0307 173.129 30.8414 172.971 30.6838C172.814 30.5261 172.687 30.463 172.467 30.463C172.246 30.463 172.088 30.5261 171.962 30.6838C171.836 30.8414 171.773 31.0307 171.773 31.2829H173.192V31.3145Z" fill="white"/>
<path d="M176.819 28.4764H177.828V31.1569C177.828 31.5668 177.828 31.8506 177.859 31.9768C177.891 32.166 178.017 32.3552 178.175 32.4498C178.332 32.5759 178.553 32.639 178.837 32.639C179.121 32.639 179.341 32.5759 179.468 32.4813C179.625 32.3552 179.688 32.2291 179.72 32.0398C179.751 31.8822 179.751 31.5984 179.751 31.1884V28.4448H180.761V31.0307C180.761 31.6299 180.729 32.0398 180.666 32.2921C180.603 32.5444 180.508 32.7336 180.382 32.9228C180.224 33.0805 180.035 33.2382 179.814 33.3328C179.562 33.4274 179.247 33.4905 178.868 33.4905C178.395 33.4905 178.048 33.4274 177.796 33.3328C177.544 33.2382 177.355 33.0805 177.229 32.9228C177.102 32.7336 177.008 32.5759 176.945 32.3867C176.882 32.1029 176.85 31.693 176.85 31.1253V28.4764H176.819Z" fill="white"/>
<path d="M185.049 33.4274H184.103V31.5983C184.103 31.2199 184.071 30.9676 184.04 30.8415C184.008 30.7153 183.945 30.6523 183.851 30.5892C183.756 30.5261 183.661 30.4946 183.535 30.4946C183.378 30.4946 183.22 30.5261 183.094 30.6207C182.968 30.7153 182.873 30.8415 182.841 30.9676C182.778 31.1253 182.778 31.3776 182.778 31.7875V33.3958H181.832V29.8324H182.715V30.3685C183.031 29.9585 183.409 29.7693 183.882 29.7693C184.103 29.7693 184.292 29.8008 184.45 29.8954C184.607 29.9585 184.765 30.0531 184.828 30.1792C184.923 30.3054 184.986 30.4315 185.017 30.5892C185.049 30.7469 185.08 30.9361 185.08 31.2199V33.4274H185.049Z" fill="white"/>
<path d="M186.027 29.3593V28.4763H186.973V29.3593H186.027ZM186.027 33.4274V29.8323H186.973V33.4274H186.027Z" fill="white"/>
<path d="M188.928 33.4274L187.477 29.8639H188.486L189.149 31.693L189.338 32.2921C189.401 32.1345 189.432 32.0399 189.432 31.9768C189.464 31.8822 189.496 31.7876 189.527 31.6614L190.221 29.8324H191.198L189.779 33.3959H188.928V33.4274Z" fill="white"/>
<path d="M193.847 32.2921L194.793 32.4497C194.667 32.7966 194.478 33.0489 194.226 33.2381C193.973 33.4273 193.627 33.5219 193.248 33.5219C192.617 33.5219 192.176 33.3327 191.861 32.9228C191.64 32.6074 191.514 32.1975 191.514 31.6929C191.514 31.0937 191.671 30.6207 191.987 30.3053C192.302 29.9585 192.68 29.8008 193.154 29.8008C193.69 29.8008 194.1 29.99 194.415 30.3369C194.73 30.6838 194.856 31.2199 194.856 31.9452H192.491C192.491 32.229 192.586 32.4497 192.712 32.6074C192.87 32.7651 193.027 32.8282 193.248 32.8282C193.406 32.8282 193.532 32.7966 193.627 32.702C193.721 32.5759 193.784 32.4497 193.847 32.2921ZM193.91 31.3145C193.91 31.0307 193.847 30.8414 193.69 30.6838C193.532 30.5261 193.406 30.463 193.185 30.463C192.964 30.463 192.807 30.5261 192.68 30.6838C192.554 30.8414 192.491 31.0307 192.491 31.2829H193.91V31.3145Z" fill="white"/>
<path d="M196.528 33.4274H195.582V29.8324H196.465V30.337C196.623 30.0847 196.749 29.927 196.875 29.8639C197.001 29.8009 197.127 29.7378 197.285 29.7378C197.506 29.7378 197.695 29.8009 197.916 29.927L197.632 30.7469C197.474 30.6523 197.316 30.5892 197.19 30.5892C197.064 30.5892 196.938 30.6208 196.843 30.6839C196.749 30.7469 196.686 30.8731 196.623 31.0938C196.56 31.283 196.528 31.693 196.528 32.2921V33.4274Z" fill="white"/>
<path d="M197.947 32.3867L198.893 32.229C198.924 32.4182 199.019 32.5444 199.145 32.639C199.271 32.7336 199.429 32.7966 199.65 32.7966C199.902 32.7966 200.091 32.7651 200.217 32.6705C200.312 32.6074 200.343 32.5128 200.343 32.4182C200.343 32.3551 200.312 32.2921 200.28 32.229C200.249 32.1975 200.123 32.1344 199.965 32.1029C199.208 31.9452 198.704 31.7875 198.514 31.6298C198.231 31.4406 198.104 31.1568 198.104 30.8099C198.104 30.4946 198.231 30.2423 198.483 30.0215C198.735 29.8008 199.114 29.7062 199.618 29.7062C200.123 29.7062 200.47 29.8008 200.722 29.9585C200.974 30.1161 201.132 30.3684 201.226 30.6522L200.343 30.8099C200.312 30.6838 200.217 30.5576 200.123 30.4946C200.028 30.4315 199.87 30.3684 199.681 30.3684C199.429 30.3684 199.24 30.4 199.145 30.463C199.082 30.5261 199.051 30.5892 199.051 30.6522C199.051 30.7153 199.082 30.7784 199.145 30.8099C199.24 30.873 199.524 30.9676 200.028 31.0622C200.533 31.1883 200.88 31.3145 201.069 31.4722C201.258 31.6298 201.353 31.8821 201.353 32.1659C201.353 32.4813 201.226 32.7651 200.943 33.0174C200.659 33.2381 200.249 33.3643 199.713 33.3643C199.24 33.3643 198.83 33.2697 198.546 33.0805C198.231 33.0174 198.041 32.7336 197.947 32.3867Z" fill="white"/>
<path d="M202.141 29.3593V28.4763H203.087V29.3593H202.141ZM202.141 33.4274V29.8323H203.087V33.4274H202.141Z" fill="white"/>
<path d="M205.673 29.8324V30.5892H205.011V32.0398C205.011 32.3237 205.011 32.5129 205.042 32.5444C205.042 32.6075 205.074 32.639 205.137 32.6705C205.169 32.7021 205.232 32.7021 205.295 32.7021C205.389 32.7021 205.515 32.6705 205.673 32.6075L205.768 33.3328C205.547 33.4274 205.295 33.4589 205.011 33.4589C204.853 33.4589 204.695 33.4274 204.538 33.3643C204.412 33.3013 204.286 33.2382 204.222 33.1436C204.159 33.049 204.128 32.9228 204.096 32.7652C204.065 32.6705 204.065 32.4183 204.065 32.1029V30.5892H203.623V29.8324H204.065V29.1071L205.011 28.5394V29.8008H205.673V29.8324Z" fill="white"/>
<path d="M205.894 29.8324H206.903L207.755 32.3868L208.575 29.8324H209.552L208.291 33.2697L208.07 33.9004C207.975 34.1212 207.912 34.2789 207.818 34.3735C207.755 34.4681 207.66 34.5627 207.565 34.6258C207.471 34.6888 207.345 34.7519 207.219 34.7834C207.061 34.815 206.903 34.8465 206.745 34.8465C206.556 34.8465 206.399 34.815 206.209 34.7834L206.115 34.0581C206.272 34.0897 206.399 34.0897 206.525 34.0897C206.745 34.0897 206.903 34.0266 206.998 33.9004C207.092 33.7743 207.187 33.6166 207.25 33.3959L205.894 29.8324Z" fill="white"/>
<path d="M209.867 24.5975H99.5569V25.039H209.867V24.5975Z" fill="white"/>
<path fill-rule="evenodd" clip-rule="evenodd" d="M17.7859 38C10.1544 38 5.8971 34.8149 3.68963 32.1344C0.346888 28.1295 0 23.4938 0 21.6963V3.18506C0 1.41909 1.41909 0 3.18506 0H14.0963C15.8622 0 17.2813 1.41909 17.2813 3.18506V21.6017C17.2813 21.7909 17.2813 21.917 17.2813 22.0432C17.439 22.0747 17.6913 22.0747 18.0066 22.0747H18.1328C18.4797 22.0747 18.732 22.0432 18.8896 22.0116C18.8896 21.917 18.8896 21.7593 18.8896 21.6017V3.18506C18.9212 1.41909 20.3403 0 22.1062 0H33.0174C33.5535 0 34.0581 0.126141 34.4996 0.378423C34.9411 0.126141 35.4456 0 35.9817 0H57.1735C58.9394 0 60.3585 1.41909 60.3585 3.18506V6.49627C60.8946 5.86556 61.4938 5.26639 62.093 4.73029C65.751 1.6083 70.1975 0.0946058 75.7162 0.0946058C90.0017 0.0946058 94.2589 9.30291 94.4166 9.68133C94.795 10.5328 94.795 11.4788 94.3851 12.2988C94.2589 12.5826 94.0697 12.8349 93.8805 13.0556C95.0158 13.5286 95.8042 14.6639 95.8042 15.9884V18.9842C95.8042 24.2822 93.6913 28.9178 89.371 33.1751C84.956 37.527 77.7975 37.8739 75.6847 37.8739C70.166 37.8739 65.4357 36.234 62.0299 33.1751C59.9486 31.283 58.3403 29.0755 57.2365 26.6158C56.9212 26.7419 56.5743 26.7734 56.1959 26.7734H49.9203V34.7519C49.9203 36.5178 48.5013 37.9369 46.7353 37.9369H35.9187C34.1527 37.9369 32.7336 36.5178 32.7336 34.7519V31.6614C32.639 31.7876 32.5129 31.9137 32.4183 32.0398C30.2108 34.7203 26.0166 37.9054 18.4166 37.9369H17.7859V38Z" fill="white"/>
<path d="M36.0132 34.8149H46.8298V23.6514H56.2904V15.3892H46.8298V11.4473H57.2049V3.18506H36.0132V34.8149ZM38.5675 5.83402H54.6505V8.79834H44.2754V18.0382H53.736V21.0025H44.2754V32.166H38.5675V5.83402Z" fill="#0075C9"/>
<path d="M22.1062 21.6017C22.1062 23.683 21.6017 25.1967 18.1643 25.2597H18.0066C14.6008 25.2597 14.0647 23.7145 14.0647 21.6017V3.18506H3.18506V21.6963C3.18506 26.6473 6.21245 34.8149 17.7859 34.8149H18.4797C29.9585 34.7519 32.9859 26.6158 32.9859 21.6963V3.18506H22.1062V21.6017ZM24.6606 21.6647V5.83402H30.4631V21.5386C30.4631 23.6514 29.6747 32.1029 18.4797 32.166H17.8174C6.5278 32.166 5.73942 23.6514 5.73942 21.5386V5.83402H11.5419V21.6963C11.5419 22.8315 11.3842 27.6564 17.8805 27.9087H18.1012C24.7867 27.6249 24.6606 22.8 24.6606 21.6647Z" fill="#0075C9"/>
<path d="M75.6532 15.9884V22.8H80.7934C80.7934 22.8 79.6897 25.6382 75.7793 25.6382C72.4681 25.6382 69.5984 22.8631 69.5984 18.9527C69.5984 15.0424 71.4905 12.2357 75.7793 12.2357C76.6308 12.2357 78.2706 12.4249 81.4557 13.8756L91.5785 10.9428C91.5785 10.9428 88.1727 3.24817 75.7793 3.24817C70.7968 3.24817 67.1071 4.66726 64.2059 7.12701C60.737 10.1229 58.908 14.9478 58.908 18.9843C58.908 22.7685 60.2324 27.278 64.2374 30.8415C66.8548 33.2067 70.7021 34.7204 75.7793 34.7204C79.469 34.7204 84.3885 33.7428 87.2266 30.9361C90.4432 27.7511 92.7138 23.9353 92.7138 19.0158V16.02H75.6532V15.9884ZM90.1594 20.1511C90.0963 20.6241 90.0648 21.0971 89.9071 21.7278C89.6864 22.6739 89.2764 23.7776 88.6457 24.976C87.9519 26.3004 86.9428 27.688 85.4922 29.1071C83.5055 30.9677 79.7212 32.166 75.8109 32.166C64.742 32.166 61.3677 24.093 61.3677 18.9843C61.3677 16.3038 62.6291 11.6996 66.0034 8.92452C68.2424 7.06394 71.049 5.83406 75.8109 5.83406C84.2308 5.83406 87.2266 9.58676 87.2266 9.58676L81.6764 11.1951C81.6764 11.1951 78.5544 9.7129 75.8109 9.7129C71.049 9.7129 67.1702 12.7087 67.1702 19.0158C67.1702 21.8855 69.0308 28.2556 75.8109 28.2556C79.5005 28.2556 83.8208 25.922 83.8208 20.2772H78.1445V18.5743H90.2225C90.2225 18.5428 90.254 19.205 90.1594 20.1511Z" fill="#0075C9"/>
<path d="M18.1326 27.8773H17.9119C11.4156 27.625 11.5733 22.8001 11.5733 21.6648V5.83411H5.73926V21.5387C5.73926 23.6515 6.52764 32.1661 17.8173 32.1661H18.4795C29.6745 32.103 30.4629 23.6515 30.4629 21.5387V5.83411H24.6604V21.6963C24.6604 22.8001 24.7866 27.625 18.1326 27.8773Z" fill="#F18A00"/>
<path d="M78.1444 18.5427V20.2456H83.8208C83.8208 25.8905 79.5005 28.2241 75.8108 28.2241C69.0307 28.2241 67.1702 21.8539 67.1702 18.9842C67.1702 12.7087 71.049 9.68133 75.8108 9.68133C78.5544 9.68133 81.6764 11.1635 81.6764 11.1635L87.2266 9.55519C87.2266 9.55519 84.1992 5.80249 75.8108 5.80249C71.049 5.80249 68.2739 7.0639 66.0034 8.89295C62.6291 11.6681 61.3677 16.2722 61.3677 18.9527C61.3677 24.0614 64.7419 32.1344 75.8108 32.1344C79.7212 32.1344 83.5054 30.9361 85.4922 29.0755C86.9428 27.6564 87.9519 26.2689 88.6457 24.9444C89.2764 23.7461 89.6863 22.6423 89.9071 21.6963C90.0648 21.0656 90.1278 20.5925 90.1594 20.1195C90.254 19.1734 90.1909 18.5112 90.1909 18.5112H78.1444V18.5427Z" fill="#F18A00"/>
<path d="M44.2755 21.0026H53.7361V18.0383H44.2755V8.79842H54.6506V5.83411H38.5676V32.1661H44.2755V21.0026Z" fill="#F18A00"/>
</svg>
