<?xml version="1.0" encoding="UTF-8"?>
<svg id="Capa_1" xmlns="http://www.w3.org/2000/svg" version="1.1" viewBox="0 0 659.86 113.51">
  <!-- Generator: Adobe Illustrator 30.1.0, SVG Export Plug-In . SVG Version: 2.1.1 Build 136)  -->
  <defs>
    <style>
      .st0 {
        fill: #1d1d1b;
      }
    </style>
  </defs>
  <g>
    <g>
      <path class="st0" d="M307.99,8.04v14.19c0,2.03.35,3.51,1.04,4.44,1.03,1.36,2.48,2.03,4.36,2.03s3.34-.68,4.37-2.03c.7-.9,1.04-2.38,1.04-4.44v-14.19h3.72v15.17c0,2.48-.8,4.53-2.43,6.14-1.81,1.79-4.05,2.69-6.69,2.69s-4.88-.9-6.68-2.69c-1.63-1.61-2.43-3.66-2.43-6.14v-15.17h3.72Z"/>
      <polygon class="st0" points="328.41 31.61 328.41 6.44 346.38 24.42 346.38 8.04 350.09 8.04 350.09 33.04 332.14 15.11 332.14 31.61 328.41 31.61"/>
      <rect class="st0" x="356" y="8.04" width="3.71" height="23.57"/>
      <polygon class="st0" points="366.88 8.04 373.69 24.37 380.6 8.04 384.67 8.04 373.62 33.38 362.81 8.04 366.88 8.04"/>
      <polygon class="st0" points="401.33 11.38 391.45 11.38 391.45 17.05 401.04 17.05 401.04 20.39 391.45 20.39 391.45 28.26 401.33 28.26 401.33 31.61 387.73 31.61 387.73 8.04 401.33 8.04 401.33 11.38"/>
      <path class="st0" d="M414.55,21.56l7.63,10.05h-4.55l-7.04-9.64h-.66v9.64h-3.73V8.04h4.36c3.25,0,5.61.58,7.06,1.75,1.59,1.31,2.39,3.03,2.39,5.16,0,1.66-.5,3.1-1.51,4.3-.99,1.2-2.31,1.97-3.95,2.3M409.93,18.86h1.17c3.52,0,5.29-1.29,5.29-3.86,0-2.41-1.71-3.62-5.13-3.62h-1.33v7.48Z"/>
      <path class="st0" d="M439.8,11.56l-3,1.71c-.57-.94-1.1-1.55-1.62-1.83-.53-.33-1.21-.49-2.06-.49-1.03,0-1.89.28-2.56.84-.7.55-1.04,1.24-1.04,2.08,0,1.14.89,2.07,2.68,2.77l2.46.97c2,.77,3.47,1.71,4.4,2.83.92,1.12,1.37,2.49,1.37,4.1,0,2.17-.75,3.96-2.27,5.38-1.52,1.42-3.4,2.14-5.66,2.14-2.13,0-3.9-.61-5.3-1.82-1.36-1.21-2.23-2.91-2.57-5.11l3.77-.79c.17,1.38.47,2.34.9,2.87.76,1.01,1.87,1.53,3.34,1.53,1.17,0,2.13-.37,2.9-1.11.76-.75,1.15-1.69,1.15-2.83,0-.45-.07-.88-.2-1.26-.14-.38-.34-.73-.62-1.05-.29-.32-.65-.63-1.09-.9-.46-.28-.98-.55-1.6-.8l-2.38-.94c-3.37-1.37-5.06-3.37-5.06-5.99,0-1.77.72-3.26,2.13-4.45,1.42-1.2,3.18-1.8,5.28-1.8,2.85,0,5.06,1.32,6.65,3.97"/>
      <rect class="st0" x="444.93" y="8.04" width="3.71" height="23.57"/>
      <path class="st0" d="M454.57,31.61V8.04h5.17c2.47,0,4.42.23,5.88.7,1.54.45,2.93,1.23,4.19,2.33,2.54,2.21,3.82,5.13,3.82,8.74s-1.33,6.55-3.98,8.79c-1.33,1.12-2.72,1.9-4.18,2.34-1.36.43-3.28.65-5.79.65h-5.1ZM458.29,28.26h1.68c1.68,0,3.06-.17,4.16-.5,1.11-.36,2.1-.93,3-1.69,1.83-1.6,2.74-3.68,2.74-6.24s-.9-4.68-2.71-6.29c-1.63-1.44-4.03-2.15-7.19-2.15h-1.68v16.88Z"/>
      <path class="st0" d="M491.55,25.88h-10.55l-2.74,5.72h-4l12.19-25.05,11.75,25.05h-4.07l-2.58-5.72ZM490.03,22.55l-3.65-8.02-3.82,8.02h7.47Z"/>
      <path class="st0" d="M501.29,31.61V8.04h5.17c2.48,0,4.43.23,5.88.7,1.54.45,2.93,1.23,4.19,2.33,2.54,2.21,3.81,5.13,3.81,8.74s-1.33,6.55-3.98,8.79c-1.33,1.12-2.72,1.9-4.17,2.34-1.37.43-3.29.65-5.8.65h-5.1ZM505,28.26h1.67c1.68,0,3.06-.17,4.16-.5,1.1-.36,2.1-.93,3-1.69,1.83-1.6,2.74-3.68,2.74-6.24s-.9-4.68-2.7-6.29c-1.64-1.44-4.03-2.15-7.2-2.15h-1.67v16.88Z"/>
    </g>
    <g>
      <polygon class="st0" points="316.93 44.69 308.05 44.69 308.05 50.55 316.61 50.55 316.61 54.01 308.05 54.01 308.05 65.62 304.2 65.62 304.2 41.24 316.93 41.24 316.93 44.69"/>
      <path class="st0" d="M330.01,55.22l7.89,10.39h-4.71l-7.28-9.97h-.68v9.97h-3.86v-24.38h4.52c3.37,0,5.8.6,7.29,1.81,1.65,1.35,2.47,3.13,2.47,5.34,0,1.72-.51,3.21-1.55,4.45-1.03,1.24-2.4,2.04-4.1,2.38M325.24,52.43h1.21c3.65,0,5.46-1.33,5.46-4,0-2.49-1.76-3.74-5.3-3.74h-1.37v7.74Z"/>
      <path class="st0" d="M356.71,59.69h-10.91l-2.84,5.92h-4.15l12.62-25.91,12.17,25.91h-4.22l-2.67-5.92ZM355.15,56.24l-3.79-8.29-3.97,8.29h7.75Z"/>
      <polygon class="st0" points="366.77 65.62 366.77 39.58 385.36 58.18 385.36 41.24 389.21 41.24 389.21 67.1 370.62 48.55 370.62 65.62 366.77 65.62"/>
      <path class="st0" d="M414.38,42.55v4.36c-2.22-1.78-4.52-2.67-6.9-2.67-2.61,0-4.82.9-6.62,2.71-1.8,1.79-2.7,3.98-2.7,6.56s.9,4.72,2.7,6.47c1.81,1.76,4.02,2.64,6.64,2.64,1.34,0,2.49-.21,3.45-.63.52-.22,1.07-.5,1.64-.86.57-.35,1.16-.79,1.79-1.29v4.44c-2.2,1.19-4.51,1.78-6.93,1.78-3.65,0-6.75-1.22-9.33-3.64-2.56-2.46-3.85-5.41-3.85-8.88,0-3.1,1.07-5.87,3.22-8.3,2.64-2.98,6.06-4.47,10.25-4.47,2.29,0,4.51.59,6.64,1.78"/>
      <rect class="st0" x="419.23" y="41.24" width="3.85" height="24.38"/>
      <path class="st0" d="M443.61,44.87l-3.12,1.77c-.58-.97-1.14-1.61-1.67-1.89-.54-.35-1.25-.51-2.12-.51-1.07,0-1.95.29-2.65.87-.71.57-1.06,1.28-1.06,2.15,0,1.18.92,2.14,2.77,2.87l2.53,1c2.07.8,3.6,1.77,4.55,2.92.96,1.15,1.43,2.57,1.43,4.24,0,2.24-.78,4.1-2.34,5.56-1.57,1.47-3.53,2.21-5.86,2.21-2.2,0-4.04-.63-5.48-1.88-1.41-1.26-2.3-3.01-2.66-5.29l3.9-.82c.18,1.43.49,2.42.93,2.97.79,1.05,1.94,1.58,3.47,1.58,1.2,0,2.19-.38,2.98-1.15.8-.77,1.19-1.74,1.19-2.93,0-.47-.07-.91-.2-1.3-.15-.39-.36-.76-.65-1.09-.29-.34-.66-.65-1.13-.93-.46-.29-1.01-.57-1.64-.83l-2.46-.97c-3.49-1.42-5.24-3.48-5.24-6.19,0-1.83.73-3.37,2.19-4.6,1.47-1.24,3.29-1.86,5.47-1.86,2.93,0,5.24,1.37,6.88,4.11"/>
      <path class="st0" d="M467.75,42.55v4.36c-2.22-1.78-4.53-2.67-6.9-2.67-2.62,0-4.83.9-6.62,2.71-1.81,1.79-2.71,3.98-2.71,6.56s.9,4.72,2.71,6.47c1.8,1.76,4.02,2.64,6.63,2.64,1.36,0,2.51-.21,3.46-.63.53-.22,1.07-.5,1.64-.86.56-.35,1.16-.79,1.79-1.29v4.44c-2.21,1.19-4.53,1.78-6.94,1.78-3.64,0-6.75-1.22-9.33-3.64-2.56-2.46-3.84-5.41-3.84-8.88,0-3.1,1.06-5.87,3.21-8.3,2.63-2.98,6.05-4.47,10.25-4.47,2.28,0,4.51.59,6.64,1.78"/>
      <path class="st0" d="M471.16,53.32c0-3.44,1.31-6.38,3.95-8.84,2.61-2.47,5.76-3.7,9.44-3.7s6.74,1.24,9.34,3.73c2.6,2.48,3.92,5.47,3.92,8.95s-1.32,6.48-3.94,8.92c-2.63,2.46-5.8,3.68-9.53,3.68-3.29,0-6.25-1.09-8.85-3.27-2.88-2.41-4.33-5.57-4.33-9.48M475.04,53.36c0,2.7.95,4.92,2.84,6.66,1.87,1.73,4.05,2.6,6.51,2.6,2.67,0,4.94-.89,6.77-2.65,1.83-1.79,2.75-3.96,2.75-6.53s-.91-4.78-2.72-6.53c-1.8-1.77-4.04-2.65-6.7-2.65s-4.89.88-6.72,2.65c-1.82,1.74-2.73,3.9-2.73,6.47"/>
      <path class="st0" d="M526.17,52.92h10.54v.81c0,1.83-.23,3.45-.68,4.86-.44,1.3-1.18,2.53-2.23,3.67-2.36,2.54-5.38,3.82-9.02,3.82s-6.63-1.23-9.16-3.7c-2.53-2.47-3.81-5.44-3.81-8.9s1.28-6.53,3.88-9c2.58-2.47,5.73-3.71,9.45-3.71,1.99,0,3.84.39,5.58,1.16,1.64.78,3.27,2.04,4.87,3.79l-2.74,2.51c-2.09-2.67-4.64-4-7.64-4-2.69,0-4.97.89-6.78,2.67-1.83,1.75-2.73,3.94-2.73,6.57s1.01,4.95,3.05,6.71c1.9,1.62,3.98,2.44,6.19,2.44,1.89,0,3.6-.61,5.1-1.83,1.51-1.23,2.35-2.71,2.52-4.43h-6.35v-3.45Z"/>
      <path class="st0" d="M555.35,59.69h-10.91l-2.83,5.92h-4.15l12.61-25.91,12.17,25.91h-4.21l-2.68-5.92ZM553.79,56.24l-3.79-8.29-3.96,8.29h7.74Z"/>
      <polygon class="st0" points="564.72 41.24 571.76 58.13 578.91 41.24 583.13 41.24 571.68 67.45 560.51 41.24 564.72 41.24"/>
      <rect class="st0" x="586.29" y="41.24" width="3.85" height="24.38"/>
      <path class="st0" d="M596.26,65.62v-24.38h5.35c2.56,0,4.59.24,6.08.73,1.59.47,3.03,1.27,4.34,2.41,2.63,2.29,3.95,5.31,3.95,9.05s-1.37,6.78-4.11,9.09c-1.38,1.16-2.82,1.96-4.34,2.42-1.4.45-3.41.68-5.99.68h-5.28ZM600.1,62.16h1.73c1.72,0,3.17-.17,4.3-.52,1.15-.37,2.19-.96,3.12-1.75,1.89-1.65,2.83-3.8,2.83-6.46s-.93-4.84-2.8-6.51c-1.68-1.49-4.17-2.23-7.44-2.23h-1.73v17.46Z"/>
      <rect class="st0" x="620.81" y="41.24" width="3.85" height="24.38"/>
      <path class="st0" d="M645.74,59.69h-10.91l-2.83,5.92h-4.15l12.61-25.91,12.16,25.91h-4.21l-2.67-5.92ZM644.18,56.24l-3.79-8.29-3.96,8.29h7.74Z"/>
    </g>
    <g>
      <path class="st0" d="M304.57,102.18v-12.07h4.55c.8,0,1.41.04,1.84.12.59.1,1.09.29,1.49.56.4.28.72.67.97,1.16.24.5.37,1.05.37,1.65,0,1.03-.33,1.89-.98,2.61-.65.71-1.83,1.07-3.54,1.07h-3.1v4.91h-1.6ZM306.17,95.85h3.12c1.03,0,1.76-.19,2.2-.58.43-.38.65-.92.65-1.62,0-.51-.13-.94-.38-1.3-.26-.36-.59-.6-1.01-.71-.27-.07-.77-.11-1.49-.11h-3.09v4.31Z"/>
      <path class="st0" d="M315.08,97.81c0-1.62.45-2.82,1.35-3.6.75-.65,1.67-.97,2.75-.97,1.2,0,2.18.39,2.95,1.18.76.79,1.14,1.88,1.14,3.26,0,1.12-.17,2.01-.51,2.65-.34.65-.83,1.15-1.47,1.5-.65.36-1.35.54-2.11.54-1.22,0-2.21-.39-2.97-1.18-.76-.78-1.13-1.92-1.13-3.39ZM316.6,97.81c0,1.12.24,1.96.73,2.51.49.56,1.1.84,1.84.84s1.35-.28,1.84-.84c.49-.56.73-1.41.73-2.56,0-1.08-.25-1.9-.74-2.46-.49-.56-1.1-.84-1.83-.84s-1.36.28-1.84.83c-.49.55-.73,1.39-.73,2.51Z"/>
      <path class="st0" d="M326.62,102.18l-2.68-8.74h1.53l1.39,5.05.52,1.88c.02-.09.17-.69.45-1.8l1.39-5.12h1.52l1.31,5.07.44,1.67.5-1.69,1.5-5.05h1.44l-2.73,8.74h-1.54l-1.39-5.24-.34-1.49-1.77,6.73h-1.55Z"/>
      <path class="st0" d="M343.17,99.36l1.53.19c-.24.89-.69,1.59-1.34,2.08-.65.49-1.49.74-2.5.74-1.28,0-2.29-.39-3.04-1.18s-1.12-1.89-1.12-3.31.38-2.61,1.14-3.42,1.74-1.22,2.95-1.22,2.12.4,2.86,1.19,1.11,1.92,1.11,3.36c0,.09,0,.22,0,.4h-6.52c.05.96.33,1.7.81,2.21.49.51,1.1.77,1.83.77.54,0,1.01-.14,1.39-.43.38-.29.69-.74.91-1.37ZM338.3,96.97h4.88c-.07-.74-.25-1.29-.56-1.65-.47-.57-1.08-.86-1.84-.86-.68,0-1.25.23-1.72.68-.46.46-.72,1.06-.77,1.83Z"/>
      <path class="st0" d="M346.54,102.18v-8.74h1.33v1.33c.34-.62.65-1.03.94-1.23s.61-.3.95-.3c.5,0,1.01.16,1.52.48l-.51,1.37c-.36-.21-.72-.32-1.09-.32-.32,0-.62.1-.87.29-.26.19-.44.47-.55.81-.16.53-.25,1.1-.25,1.73v4.58h-1.48Z"/>
      <path class="st0" d="M358.16,99.36l1.53.19c-.24.89-.69,1.59-1.34,2.08-.65.49-1.49.74-2.5.74-1.28,0-2.29-.39-3.04-1.18s-1.12-1.89-1.12-3.31.38-2.61,1.14-3.42,1.74-1.22,2.95-1.22,2.12.4,2.86,1.19c.74.8,1.11,1.92,1.11,3.36,0,.09,0,.22,0,.4h-6.52c.05.96.33,1.7.81,2.21.49.51,1.1.77,1.83.77.54,0,1.01-.14,1.39-.43.38-.29.69-.74.91-1.37ZM353.29,96.97h4.88c-.07-.74-.25-1.29-.56-1.65-.47-.57-1.08-.86-1.84-.86-.68,0-1.25.23-1.72.68-.46.46-.72,1.06-.77,1.83Z"/>
      <path class="st0" d="M367.22,102.18v-1.1c-.55.87-1.37,1.3-2.44,1.3-.7,0-1.34-.19-1.92-.58s-1.04-.92-1.36-1.61-.48-1.48-.48-2.37.15-1.66.44-2.37c.29-.71.73-1.26,1.31-1.63.58-.38,1.23-.57,1.95-.57.53,0,1,.11,1.41.33.41.22.75.51,1,.87v-4.33h1.47v12.07h-1.37ZM362.54,97.82c0,1.12.24,1.96.71,2.51.47.55,1.03.83,1.67.83s1.2-.26,1.65-.79c.45-.53.68-1.34.68-2.42,0-1.2-.23-2.07-.69-2.63-.46-.56-1.03-.84-1.7-.84s-1.21.27-1.65.81c-.44.54-.66,1.39-.66,2.54Z"/>
      <path class="st0" d="M376.98,102.18h-1.37v-12.07h1.48v4.31c.63-.78,1.42-1.18,2.4-1.18.54,0,1.05.11,1.53.33.48.22.87.52,1.19.91.31.39.55.87.73,1.42.18.55.26,1.15.26,1.78,0,1.5-.37,2.66-1.11,3.47-.74.82-1.63,1.23-2.67,1.23s-1.84-.43-2.43-1.29v1.09ZM376.96,97.74c0,1.05.14,1.81.43,2.27.47.76,1.1,1.14,1.89,1.14.65,0,1.21-.28,1.68-.84.47-.56.71-1.4.71-2.51s-.23-1.98-.68-2.53c-.45-.54-1-.81-1.64-.81s-1.21.28-1.68.84c-.47.56-.71,1.38-.71,2.44Z"/>
      <path class="st0" d="M384.92,105.55l-.16-1.39c.32.09.61.13.85.13.33,0,.59-.05.79-.16s.36-.26.49-.46c.09-.15.24-.52.45-1.1.03-.08.07-.2.13-.36l-3.32-8.76h1.6l1.82,5.06c.24.64.45,1.32.63,2.03.17-.68.37-1.34.61-1.99l1.87-5.1h1.48l-3.33,8.89c-.36.96-.63,1.62-.83,1.98-.26.49-.57.85-.91,1.07-.34.23-.75.34-1.22.34-.29,0-.6-.06-.95-.18Z"/>
      <path class="st0" d="M413.15,102.18h-3.31l-1.32-3.43h-6.03l-1.25,3.43h-3.23l5.88-15.09h3.22l6.04,15.09ZM407.54,96.21l-2.08-5.6-2.04,5.6h4.12Z"/>
      <path class="st0" d="M417.51,102.18h-2.89v-10.93h2.69v1.55c.46-.73.87-1.22,1.24-1.45.37-.23.78-.35,1.25-.35.66,0,1.29.18,1.9.55l-.89,2.52c-.49-.32-.94-.47-1.36-.47s-.75.11-1.03.33c-.28.22-.5.63-.66,1.21-.16.58-.24,1.8-.24,3.66v3.38Z"/>
      <path class="st0" d="M422.94,89.77v-2.68h2.89v2.68h-2.89ZM422.94,102.18v-10.93h2.89v10.93h-2.89Z"/>
      <path class="st0" d="M427.63,102.18v-2.25l4.1-4.7c.67-.77,1.17-1.31,1.49-1.64-.34.02-.78.03-1.33.04l-3.86.02v-2.4h9.03v2.05l-4.18,4.82-1.47,1.59c.8-.05,1.3-.07,1.49-.07h4.48v2.54h-9.76Z"/>
      <path class="st0" d="M438.66,96.56c0-.96.24-1.89.71-2.79.47-.9,1.14-1.58,2.01-2.06.87-.47,1.84-.71,2.91-.71,1.65,0,3.01.54,4.06,1.61,1.06,1.07,1.58,2.43,1.58,4.07s-.53,3.02-1.6,4.11c-1.07,1.09-2.41,1.63-4.03,1.63-1,0-1.96-.23-2.87-.68-.91-.45-1.6-1.12-2.07-1.99-.47-.87-.71-1.94-.71-3.2ZM441.63,96.72c0,1.08.26,1.91.77,2.49s1.15.86,1.9.86,1.39-.29,1.9-.86c.51-.58.77-1.41.77-2.51s-.26-1.89-.77-2.47c-.51-.58-1.14-.86-1.9-.86s-1.39.29-1.9.86-.77,1.41-.77,2.49Z"/>
      <path class="st0" d="M462.15,102.18h-2.89v-5.58c0-1.18-.06-1.94-.19-2.29-.12-.35-.32-.62-.6-.81-.28-.19-.61-.29-1-.29-.5,0-.95.14-1.35.41-.4.27-.67.64-.82,1.09s-.22,1.29-.22,2.51v4.95h-2.89v-10.93h2.69v1.61c.95-1.23,2.15-1.85,3.6-1.85.64,0,1.22.12,1.75.34.53.23.93.52,1.2.88.27.36.46.76.57,1.21s.16,1.1.16,1.95v6.79Z"/>
      <path class="st0" d="M467.24,94.59l-2.62-.47c.29-1.06.8-1.84,1.52-2.35.72-.51,1.79-.76,3.21-.76,1.29,0,2.25.15,2.88.46.63.31,1.07.69,1.33,1.16.26.47.39,1.33.39,2.59l-.03,3.38c0,.96.05,1.67.14,2.13.09.46.27.95.52,1.47h-2.86c-.08-.19-.17-.48-.28-.85-.05-.17-.08-.28-.1-.34-.49.48-1.02.84-1.58,1.08-.56.24-1.16.36-1.8.36-1.13,0-2.01-.31-2.66-.92-.65-.61-.97-1.38-.97-2.31,0-.62.15-1.17.44-1.65.29-.48.71-.85,1.24-1.11.53-.26,1.3-.48,2.3-.67,1.35-.25,2.29-.49,2.81-.71v-.29c0-.56-.14-.95-.41-1.19-.27-.24-.79-.35-1.55-.35-.51,0-.92.1-1.2.3s-.52.56-.7,1.06ZM471.11,96.93c-.37.12-.96.27-1.76.44-.8.17-1.33.34-1.57.5-.38.27-.57.61-.57,1.02s.15.75.45,1.05c.3.3.69.44,1.15.44.52,0,1.02-.17,1.49-.51.35-.26.58-.58.69-.96.08-.25.11-.72.11-1.41v-.58Z"/>
      <path class="st0" d="M481.9,97.27l2.96-.29c.18.99.54,1.73,1.09,2.19.55.47,1.28.7,2.21.7.98,0,1.72-.21,2.22-.62.5-.41.75-.9.75-1.46,0-.36-.1-.66-.31-.91-.21-.25-.57-.47-1.1-.65-.36-.12-1.17-.34-2.44-.66-1.63-.4-2.78-.9-3.44-1.49-.93-.83-1.39-1.84-1.39-3.04,0-.77.22-1.49.65-2.16.44-.67,1.06-1.18,1.88-1.53s1.81-.52,2.97-.52c1.89,0,3.32.42,4.28,1.24.96.83,1.46,1.94,1.51,3.32l-3.05.13c-.13-.77-.41-1.33-.84-1.67-.43-.34-1.07-.51-1.93-.51s-1.58.18-2.08.55c-.32.23-.48.55-.48.94,0,.36.15.66.45.92.38.32,1.32.66,2.8,1.01,1.48.35,2.58.71,3.29,1.09.71.37,1.27.88,1.67,1.53.4.65.6,1.45.6,2.4,0,.86-.24,1.67-.72,2.43-.48.75-1.16,1.32-2.04,1.68-.88.37-1.97.55-3.28.55-1.91,0-3.37-.44-4.39-1.32-1.02-.88-1.63-2.17-1.83-3.85Z"/>
      <path class="st0" d="M501.72,91.25v2.31h-1.98v4.4c0,.89.02,1.41.06,1.56.04.15.12.27.26.37.13.1.3.14.49.14.27,0,.66-.09,1.16-.28l.25,2.24c-.67.29-1.43.43-2.29.43-.52,0-.99-.09-1.41-.26-.42-.18-.73-.4-.92-.68-.2-.28-.33-.65-.41-1.13-.06-.34-.09-1.01-.09-2.04v-4.76h-1.33v-2.31h1.33v-2.17l2.9-1.69v3.86h1.98Z"/>
      <path class="st0" d="M505.89,94.59l-2.62-.47c.29-1.06.8-1.84,1.52-2.35.72-.51,1.79-.76,3.21-.76,1.29,0,2.25.15,2.88.46.63.31,1.08.69,1.33,1.16.26.47.39,1.33.39,2.59l-.03,3.38c0,.96.05,1.67.14,2.13.09.46.27.95.52,1.47h-2.86c-.08-.19-.17-.48-.28-.85-.05-.17-.08-.28-.1-.34-.49.48-1.02.84-1.58,1.08-.56.24-1.16.36-1.8.36-1.13,0-2.01-.31-2.66-.92-.65-.61-.97-1.38-.97-2.31,0-.62.15-1.17.44-1.65.29-.48.71-.85,1.24-1.11.53-.26,1.3-.48,2.3-.67,1.35-.25,2.29-.49,2.81-.71v-.29c0-.56-.14-.95-.41-1.19-.27-.24-.79-.35-1.55-.35-.51,0-.92.1-1.2.3s-.52.56-.7,1.06ZM509.76,96.93c-.37.12-.96.27-1.76.44-.8.17-1.33.34-1.57.5-.38.27-.57.61-.57,1.02s.15.75.45,1.05c.3.3.69.44,1.15.44.52,0,1.02-.17,1.49-.51.35-.26.58-.58.69-.96.08-.25.11-.72.11-1.41v-.58Z"/>
      <path class="st0" d="M520.46,91.25v2.31h-1.98v4.4c0,.89.02,1.41.06,1.56.04.15.12.27.26.37.13.1.3.14.49.14.27,0,.66-.09,1.16-.28l.25,2.24c-.67.29-1.43.43-2.29.43-.52,0-.99-.09-1.41-.26-.42-.18-.73-.4-.92-.68-.2-.28-.33-.65-.41-1.13-.06-.34-.09-1.01-.09-2.04v-4.76h-1.33v-2.31h1.33v-2.17l2.9-1.69v3.86h1.98Z"/>
      <path class="st0" d="M528.8,98.7l2.88.48c-.37,1.06-.96,1.86-1.75,2.41-.8.55-1.8.83-3,.83-1.9,0-3.31-.62-4.22-1.86-.72-.99-1.08-2.25-1.08-3.77,0-1.81.47-3.23,1.42-4.26.95-1.03,2.14-1.54,3.59-1.54,1.63,0,2.91.54,3.85,1.61.94,1.07,1.39,2.72,1.35,4.93h-7.24c.02.86.25,1.52.7,2,.45.48,1,.72,1.67.72.45,0,.83-.12,1.14-.37s.54-.64.7-1.19ZM528.96,95.78c-.02-.84-.24-1.47-.65-1.91-.41-.44-.91-.65-1.5-.65-.63,0-1.15.23-1.56.69-.41.46-.61,1.08-.61,1.87h4.32Z"/>
      <path class="st0" d="M540.04,87.09h3.05v8.17c0,1.3.04,2.14.11,2.52.13.62.44,1.11.93,1.49.49.37,1.16.56,2.01.56s1.52-.18,1.96-.53c.44-.35.7-.79.79-1.3.09-.51.13-1.37.13-2.56v-8.35h3.05v7.92c0,1.81-.08,3.09-.25,3.84-.16.75-.47,1.38-.91,1.89-.44.51-1.03.92-1.78,1.23s-1.71.46-2.9.46c-1.44,0-2.53-.17-3.28-.5-.74-.33-1.33-.77-1.77-1.3-.43-.53-.72-1.09-.85-1.67-.2-.86-.3-2.14-.3-3.83v-8.05Z"/>
      <path class="st0" d="M565.2,102.18h-2.89v-5.58c0-1.18-.06-1.94-.19-2.29-.12-.35-.32-.62-.6-.81-.28-.19-.61-.29-1-.29-.5,0-.95.14-1.35.41-.4.27-.67.64-.82,1.09s-.22,1.29-.22,2.51v4.95h-2.89v-10.93h2.69v1.61c.95-1.23,2.15-1.85,3.6-1.85.64,0,1.22.12,1.75.34.53.23.93.52,1.2.88.27.36.46.76.57,1.21.11.45.16,1.1.16,1.95v6.79Z"/>
      <path class="st0" d="M568.13,89.77v-2.68h2.89v2.68h-2.89ZM568.13,102.18v-10.93h2.89v10.93h-2.89Z"/>
      <path class="st0" d="M576.99,102.18l-4.4-10.93h3.04l2.06,5.58.6,1.86c.16-.47.26-.79.3-.94.1-.31.2-.62.31-.93l2.08-5.58h2.97l-4.34,10.93h-2.6Z"/>
      <path class="st0" d="M592.04,98.7l2.88.48c-.37,1.06-.96,1.86-1.75,2.41-.8.55-1.8.83-3,.83-1.9,0-3.31-.62-4.22-1.86-.72-.99-1.08-2.25-1.08-3.77,0-1.81.47-3.23,1.42-4.26.95-1.03,2.14-1.54,3.59-1.54,1.63,0,2.91.54,3.85,1.61.94,1.07,1.39,2.72,1.35,4.93h-7.24c.02.86.25,1.52.7,2,.45.48,1,.72,1.67.72.45,0,.83-.12,1.14-.37s.54-.64.7-1.19ZM592.2,95.78c-.02-.84-.24-1.47-.65-1.91s-.91-.65-1.5-.65c-.63,0-1.15.23-1.56.69-.41.46-.61,1.08-.61,1.87h4.32Z"/>
      <path class="st0" d="M600.2,102.18h-2.89v-10.93h2.69v1.55c.46-.73.87-1.22,1.24-1.45.37-.23.78-.35,1.25-.35.66,0,1.29.18,1.9.55l-.89,2.52c-.49-.32-.94-.47-1.36-.47s-.75.11-1.03.33c-.28.22-.5.63-.66,1.21-.16.58-.24,1.8-.24,3.66v3.38Z"/>
      <path class="st0" d="M604.61,99.06l2.9-.44c.12.56.37.99.75,1.28.38.29.91.44,1.59.44.75,0,1.31-.14,1.69-.41.25-.19.38-.45.38-.77,0-.22-.07-.4-.21-.55-.14-.14-.47-.26-.97-.38-2.33-.51-3.81-.98-4.43-1.41-.86-.59-1.3-1.41-1.3-2.46,0-.95.37-1.74,1.12-2.39.75-.64,1.91-.97,3.48-.97s2.61.24,3.33.73c.73.49,1.23,1.21,1.5,2.16l-2.73.5c-.12-.43-.34-.75-.66-.98-.33-.23-.79-.34-1.39-.34-.76,0-1.31.11-1.64.32-.22.15-.33.35-.33.59,0,.21.1.38.29.52.26.19,1.16.46,2.7.81,1.54.35,2.61.78,3.23,1.29.6.52.91,1.23.91,2.15,0,1-.42,1.86-1.26,2.58-.84.72-2.08,1.08-3.71,1.08-1.49,0-2.67-.3-3.54-.91-.87-.6-1.44-1.42-1.7-2.46Z"/>
      <path class="st0" d="M617.35,89.77v-2.68h2.89v2.68h-2.89ZM617.35,102.18v-10.93h2.89v10.93h-2.89Z"/>
      <path class="st0" d="M628.22,91.25v2.31h-1.98v4.4c0,.89.02,1.41.06,1.56.04.15.12.27.26.37.13.1.3.14.49.14.27,0,.66-.09,1.16-.28l.25,2.24c-.67.29-1.43.43-2.29.43-.52,0-.99-.09-1.41-.26-.42-.18-.73-.4-.92-.68-.2-.28-.33-.65-.41-1.13-.06-.34-.09-1.01-.09-2.04v-4.76h-1.33v-2.31h1.33v-2.17l2.9-1.69v3.86h1.98Z"/>
      <path class="st0" d="M628.86,91.25h3.08l2.61,7.76,2.55-7.76h2.99l-3.86,10.52-.69,1.9c-.25.64-.5,1.12-.73,1.46-.23.34-.49.61-.79.82-.3.21-.67.37-1.1.49-.44.12-.93.17-1.48.17s-1.1-.06-1.64-.17l-.26-2.26c.45.09.86.13,1.22.13.67,0,1.17-.2,1.49-.59.32-.39.57-.9.74-1.51l-4.16-10.96Z"/>
      <path class="st0" d="M646.95,87.42v1.69h.35c.35,0,.48,0,.67-.02.22,0,.95-.05.95-.83,0-.11,0-.51-.43-.73-.21-.11-.47-.11-1.07-.11h-.47ZM645.95,86.55h1.72c.72,0,1.2,0,1.68.39.34.28.6.7.6,1.33,0,1.03-.76,1.39-1.06,1.49l1.2,2.2h-1.16l-1.07-2.01h-.9v2.01h-1v-5.41h0ZM647.74,84.43c-2.63,0-4.86,2.07-4.86,4.87s2.33,4.87,4.86,4.87c2.75,0,4.87-2.15,4.88-4.84.01-2.67-2.05-4.9-4.88-4.9h0ZM647.75,93.61c-2.38,0-4.31-1.89-4.31-4.3s1.89-4.3,4.32-4.3,4.31,1.96,4.29,4.32c-.01,2.39-1.87,4.29-4.3,4.29h0Z"/>
    </g>
    <rect class="st0" x="303.87" y="74.43" width="349.6" height="1.35"/>
  </g>
  <g>
    <path class="st0" d="M110.75,106.84h34.32v-35.37h29.95v-26.13h-29.95v-12.53h32.88V6.6h-67.21v100.25ZM118.87,14.97h50.98v9.44h-32.92v29.29h30.02v9.4h-30.02v35.37h-18.06V14.97Z"/>
    <path class="st0" d="M66.68,64.94c0,6.59-1.62,11.43-12.46,11.59h-.47c-10.78,0-12.46-4.91-12.46-11.59V6.6H6.71v58.69c0,15.67,9.63,41.58,46.32,41.58h2.23c36.43-.16,46.01-25.96,46.01-41.58V6.6h-34.58v58.34ZM74.74,65.21V14.97h18.41v49.78c0,6.68-2.5,33.53-37.96,33.7h-2.13c-35.78,0-38.29-26.99-38.29-33.7V14.97h18.4v50.23c0,3.62-.47,18.91,20.13,19.69h.74c21.17-.77,20.69-16.07,20.69-19.69Z"/>
    <path class="st0" d="M236.42,47.22v21.62h16.28s-3.55,9.04-15.91,9.04c-10.51,0-19.54-8.83-19.54-21.19s6.01-21.32,19.54-21.32c2.73,0,7.9.55,17.99,5.16l32.05-9.25s-10.83-24.43-50.07-24.43c-15.77,0-27.5,4.47-36.64,12.31-11.04,9.47-16.82,24.8-16.82,37.53,0,11.99,4.25,26.24,16.88,37.6,8.31,7.48,20.5,12.3,36.58,12.3,11.69,0,27.28-3.14,36.27-12,10.23-10.09,17.37-22.21,17.37-37.84v-9.54h-53.99ZM282.4,60.42c-.16,1.48-.35,3.01-.83,5.01-.73,3.01-1.96,6.54-4,10.32-2.23,4.15-5.44,8.62-10.03,13.07-6.29,5.91-18.28,9.66-30.67,9.66-35.09,0-45.79-25.59-45.79-41.74,0-8.53,4-23.12,14.68-31.92,7.11-5.85,15.96-9.83,31.04-9.83,26.64,0,36.22,11.9,36.22,11.9l-17.59,5.1s-9.94-4.69-18.62-4.69c-15.1,0-27.39,9.53-27.39,29.44,0,9.07,5.87,29.27,27.39,29.27,11.72,0,25.4-7.43,25.4-25.28h-17.96v-5.41h38.28s.16,2.07-.13,5.1Z"/>
  </g>
</svg>