<svg width="24" height="24" viewBox="0 0 24 24" fill="none" xmlns="http://www.w3.org/2000/svg">
<path d="M21.9783 15.8296L20.0944 13.9458C19.0059 12.8573 17.1095 12.8565 16.0218 13.9458L14.2923 15.6745C14.2687 15.6982 14.2332 15.7048 14.214 15.6989C12.6736 15.1761 11.3583 14.3763 10.306 13.324C9.25297 12.2717 8.45394 10.9565 7.93111 9.41602C7.92446 9.39608 7.93111 9.36137 7.95474 9.33774L9.68423 7.60824C10.2285 7.06399 10.5283 6.34103 10.5283 5.57154C10.5283 4.80205 10.2285 4.07909 9.68423 3.53484L7.8004 1.651C6.67719 0.527791 4.85021 0.527791 3.72774 1.651L2.94201 2.43526C1.35503 4.02297 0.57964 6.23247 0.86912 8.34154C1.3314 11.8242 2.98779 15.018 5.79398 17.8361C8.60976 20.6408 11.8044 22.2971 15.2841 22.7594C15.5765 22.7993 15.8704 22.8192 16.1643 22.8192C17.995 22.8192 19.8249 22.0549 21.1933 20.6865L21.9783 19.9023C23.1008 18.7791 23.1008 16.9521 21.9783 15.8296ZM21.0382 18.963L20.254 19.7472C18.9579 21.0425 17.1671 21.6783 15.4628 21.442C12.2755 21.0189 9.33789 19.4887 6.73479 16.896C4.14054 14.2914 2.61043 11.3538 2.18655 8.16357C1.95319 6.46066 2.5868 4.67135 3.88208 3.37533L4.66633 2.59108C4.9691 2.2883 5.36566 2.13766 5.76296 2.13766C6.16026 2.13766 6.55681 2.28904 6.85959 2.59108L8.74342 4.47491C9.03586 4.76809 9.19758 5.15726 9.19758 5.57154C9.19758 5.98582 9.03586 6.375 8.74342 6.66817L7.01319 8.3984C6.63583 8.7765 6.50217 9.34365 6.67202 9.84359C7.26058 11.579 8.16742 13.0663 9.36522 14.2641C10.563 15.4626 12.0503 16.3687 13.7857 16.9573C14.2864 17.1279 14.8528 16.9927 15.2316 16.6154L16.9619 14.8859C17.5475 14.3003 18.5688 14.301 19.1551 14.8859L21.0389 16.7697C21.643 17.3738 21.643 18.3581 21.0382 18.963Z" fill="#3A3D3B"/>
<path d="M13.7717 4.20335C14.982 4.66932 16.1547 5.44915 17.1627 6.45642C18.1685 7.46222 18.9506 8.6386 19.4254 9.85855C19.5281 10.1214 19.7791 10.2824 20.045 10.2824C20.1255 10.2824 20.2067 10.2677 20.2865 10.2366C20.6284 10.103 20.7975 9.71824 20.6646 9.37559C20.1233 7.98579 19.2371 6.65138 18.1021 5.51635C16.9634 4.37763 15.6319 3.49515 14.2495 2.96272C13.9076 2.83053 13.5221 3.00112 13.3899 3.34377C13.2577 3.68642 13.4298 4.0719 13.7717 4.20335Z" fill="#3A3D3B"/>
<path d="M14.2745 6.38884C13.9304 6.26257 13.5478 6.43611 13.4201 6.78023C13.2923 7.12436 13.4673 7.50689 13.8115 7.63464C14.2531 7.79858 14.7028 8.10135 15.1119 8.51047C15.5151 8.91367 15.826 9.37522 15.9877 9.81091C16.0874 10.079 16.3415 10.2444 16.611 10.2444C16.6878 10.2444 16.7661 10.2304 16.8421 10.2023C17.1863 10.0745 17.3613 9.69202 17.2335 9.34789C17.0031 8.72832 16.5948 8.11391 16.0512 7.57039C15.5085 7.02836 14.8941 6.61925 14.2745 6.38884Z" fill="#3A3D3B"/>
</svg>
