<svg width="30" height="30" viewBox="0 0 30 30" fill="none" xmlns="http://www.w3.org/2000/svg">
<path d="M15.5597 28.0153C15.5259 27.7172 15.3478 27.4613 15.0656 27.3413C14.9859 27.3075 14.9053 27.2747 14.8144 27.2663C13.0519 27.1059 11.2031 24.3722 10.3416 20.1375H12.375C12.8409 20.1375 13.2188 19.7597 13.2188 19.2938C13.2188 18.8278 12.8409 18.45 12.375 18.45H10.0631C9.92438 17.3691 9.84375 16.2178 9.84375 15C9.84375 13.7822 9.92625 12.6328 10.0659 11.5519H19.9406C20.0381 12.3009 20.1056 13.0753 20.1384 13.8713C20.1581 14.3372 20.5969 14.6934 21.0159 14.6803C21.4819 14.6606 21.8438 14.2688 21.825 13.8028C21.7931 13.0266 21.7275 12.2794 21.6422 11.5519H26.7806C27.1003 12.6469 27.2813 13.8019 27.2813 15C27.2813 15.5156 27.2531 15.9863 27.195 16.44C27.1359 16.9013 27.4622 17.3241 27.9244 17.3841C28.3744 17.4394 28.8084 17.1169 28.8684 16.6547C28.9359 16.1288 28.9688 15.5878 28.9688 15C28.9688 7.2975 22.7016 1.03125 15 1.03125C7.29844 1.03125 1.03125 7.2975 1.03125 15C1.03125 22.5581 7.17375 28.8197 14.7225 28.9594C14.7281 28.9603 14.7338 28.9603 14.7384 28.9603C15.0488 28.9603 15.3113 28.7841 15.4575 28.5328C15.555 28.3659 15.5822 28.2 15.5597 28.0153ZM8.36344 18.45H3.225C2.89969 17.3522 2.71875 16.1963 2.71875 15C2.71875 13.8019 2.89875 12.6469 3.22031 11.5519H8.36531C8.23313 12.6534 8.15531 13.8038 8.15531 15C8.15531 16.1972 8.23219 17.3484 8.36344 18.45ZM10.3434 9.86344C11.2378 5.48906 13.1934 2.71875 15 2.71875C16.9894 2.71875 18.81 5.69063 19.6575 9.86344H10.3434ZM26.1403 9.86344H21.3938C20.8913 7.14375 19.9959 4.89563 18.8456 3.34406C22.0838 4.41563 24.7219 6.79969 26.1403 9.86344ZM11.1928 3.33094C10.0322 4.89281 9.13313 7.16438 8.62406 9.86438H3.85969C5.28375 6.7875 7.93688 4.39594 11.1928 3.33094ZM3.87375 20.1375H8.61563C9.12 22.8413 10.0181 25.1034 11.1797 26.6634C7.94344 25.5947 5.30156 23.1956 3.87375 20.1375Z" fill="white"/>
<path d="M28.3875 20.1146L22.8703 16.9093C22.2722 16.5624 21.5259 16.5605 20.9268 16.9093L15.4068 20.1165C15.0497 20.3255 14.8284 20.7127 14.8293 21.1262C14.8303 21.5387 15.0525 21.9259 15.4097 22.133L16.8656 22.9787V25.5146C16.8656 26.1952 17.2322 26.8271 17.8209 27.1655L20.1234 28.493C20.6709 28.809 21.285 28.9674 21.899 28.9674C22.5131 28.9674 23.1281 28.809 23.6756 28.493L25.9772 27.1665C26.5668 26.828 26.9334 26.1952 26.9334 25.5146V22.9787L28.3884 22.134C28.7465 21.9259 28.9697 21.5396 28.9706 21.1262C28.9697 20.7118 28.7475 20.3246 28.3875 20.1146ZM21.7753 18.369C21.8531 18.324 21.9478 18.3259 22.0237 18.369L26.7665 21.1234L22.0237 23.8787C21.9459 23.9227 21.8512 23.9227 21.7753 23.8787L17.0325 21.1234L21.7753 18.369ZM25.244 25.5155C25.244 25.5934 25.2028 25.6655 25.1353 25.7049L22.8328 27.0324C22.2562 27.3634 21.5428 27.3643 20.9662 27.0324L18.6628 25.704C18.5962 25.6655 18.555 25.5934 18.555 25.5155V23.9602L20.9278 25.3393C21.2268 25.5137 21.5634 25.5999 21.9 25.5999C22.2356 25.5999 22.5722 25.5127 22.8712 25.3393L25.244 23.9612V25.5155Z" fill="white"/>
</svg>
