<svg width="30" height="30" viewBox="0 0 30 30" fill="none" xmlns="http://www.w3.org/2000/svg">
<g clip-path="url(#clip0_7092_828)">
<path d="M25.4763 9.72349C25.4586 9.47353 25.3628 9.23935 25.1854 9.057L16.8738 0.74545C16.675 0.544246 16.4091 0.469051 16.1385 0.441406H6.60119C4.91881 0.441406 3.55011 1.81062 3.55011 3.493V25.6598C3.55011 27.3422 4.91881 28.7114 6.60119 28.7114H14.7273C15.3004 28.7114 15.7651 28.2473 15.7651 27.6736C15.7651 27.1 15.3004 26.6358 14.7273 26.6358H6.60119C6.06354 26.6358 5.62572 26.198 5.62572 25.6598V3.493C5.62572 2.95484 6.06354 2.51701 6.60119 2.51701H15.1023V5.76116C15.1023 8.55533 17.3755 10.8286 20.1697 10.8286H23.4138V14.5663C23.4138 15.1399 23.8785 15.6041 24.4516 15.6041C25.0247 15.6041 25.4894 15.1399 25.4894 14.5663V9.79178C25.4892 9.76856 25.478 9.74666 25.4763 9.72349ZM17.1779 5.76116V3.98593L21.9452 8.75296H20.1697C18.5202 8.75296 17.1779 7.41111 17.1779 5.76116Z" fill="white"/>
<path d="M21.6889 29.1893C23.0735 29.1893 24.3879 28.7529 25.4875 27.9562L26.7284 29.1974C26.9311 29.4001 27.1966 29.5014 27.4622 29.5014C27.7277 29.5014 27.9932 29.4001 28.1959 29.1974C28.6013 28.792 28.6013 28.1353 28.1959 27.7299L26.9538 26.4874C28.7857 23.9489 28.5672 20.378 26.284 18.0947C25.0567 16.8674 23.425 16.1914 21.6889 16.1914C19.9528 16.1914 18.3211 16.8674 17.0938 18.0947C14.5601 20.6284 14.5601 24.7523 17.0938 27.286C18.3211 28.5133 19.9528 29.1893 21.6889 29.1893ZM24.8165 19.5622C26.5379 21.2842 26.5398 24.0832 24.8243 25.8089C24.8214 25.8117 24.8174 25.8125 24.8145 25.8154C24.8114 25.8185 24.8106 25.8226 24.8076 25.8257C23.0818 27.5424 20.2835 27.5407 18.5613 25.8185C16.8368 24.0935 16.8368 21.2872 18.5613 19.5622C20.2862 17.8373 23.0915 17.8373 24.8165 19.5622Z" fill="white"/>
<path d="M15.5056 18.0847C15.5056 17.511 15.041 17.0469 14.4678 17.0469H10.1712C9.59807 17.0469 9.13339 17.511 9.13339 18.0847C9.13339 18.6583 9.59807 19.1225 10.1712 19.1225H14.4678C15.041 19.1225 15.5056 18.6583 15.5056 18.0847Z" fill="white"/>
<path d="M10.1712 22.4844C9.59807 22.4844 9.13339 22.9485 9.13339 23.5222C9.13339 24.0958 9.59807 24.56 10.1712 24.56H13.1599C13.7331 24.56 14.1978 24.0958 14.1978 23.5222C14.1978 22.9485 13.7331 22.4844 13.1599 22.4844H10.1712Z" fill="white"/>
<path d="M17.6851 12.6433C17.6851 12.0696 17.2204 11.6055 16.6473 11.6055H10.1686C9.59551 11.6055 9.13083 12.0696 9.13083 12.6433C9.13083 13.2169 9.59551 13.6811 10.1686 13.6811H16.6473C17.2204 13.6811 17.6851 13.2169 17.6851 12.6433Z" fill="white"/>
</g>
<defs>
<clipPath id="clip0_7092_828">
<rect width="30" height="30" fill="white"/>
</clipPath>
</defs>
</svg>
