<svg width="30" height="29" viewBox="0 0 30 29" fill="none" xmlns="http://www.w3.org/2000/svg">
<path d="M20.625 29H9.375C7.8218 28.9443 7.82297 26.7898 9.375 26.7346H20.625C22.1781 26.7903 22.177 28.9448 20.625 29ZM22.9688 24.4692H7.03002C3.15363 24.4692 0 21.421 0 17.6742V8.3849C0 4.63748 3.15422 1.58871 7.03125 1.58871H9.90234C11.4555 1.64438 11.4544 3.79894 9.90234 3.8541H7.03125C4.44656 3.8541 2.34375 5.88662 2.34375 8.3849V17.6742C2.34375 20.1719 4.44604 22.2038 7.03002 22.2038H22.9688C25.5534 22.2038 27.6563 20.1713 27.6563 17.673V16.597C27.7139 15.0957 29.9429 15.0968 30 16.597V17.673C30 21.4204 26.8458 24.4692 22.9688 24.4692ZM21.4942 16.1429C21.0028 16.1429 20.5116 16.062 20.0457 15.9003L17.1169 14.8869C15.8087 14.4331 15.0057 13.1397 15.2068 11.8113L15.7234 8.39781L14.581 7.85853C12.4223 6.87682 12.4185 3.79424 14.5742 2.80687L19.5791 0.425937C20.7761 -0.141885 22.1476 -0.141885 23.3432 0.425371L28.3621 2.80687C29.352 3.27648 29.9794 4.23412 29.9995 5.30611C30.0112 5.93159 29.4962 6.44781 28.849 6.4592C28.2043 6.4712 27.6671 5.97304 27.6561 5.34723C27.6541 5.24047 27.6182 4.97751 27.3294 4.84046L22.3104 2.45896C21.7712 2.20303 21.1523 2.20308 20.6129 2.45902L15.6081 4.83989C15.185 5.04015 15.185 5.62292 15.6086 5.82251L20.6194 8.18792C20.9009 8.3205 21.1999 8.38835 21.4879 8.38507C22.1333 8.37595 22.6673 8.87643 22.6757 9.50225C22.6845 10.1277 22.167 10.6417 21.5198 10.6503C20.8688 10.6577 20.2021 10.5115 19.5918 10.2241L17.9342 9.44159L17.5258 12.1395C17.4855 12.4051 17.6462 12.6638 17.9078 12.7545L20.8365 13.7679C21.2423 13.9086 21.6892 13.9148 22.098 13.7856L25.5452 12.535C26.151 12.3151 26.8267 12.6117 27.0541 13.1975C27.2815 13.7832 26.9747 14.4361 26.3688 14.656C26.3688 14.656 22.8758 15.9229 22.8632 15.927C22.4208 16.0709 21.9574 16.1429 21.4942 16.1429ZM26.0733 11.2733C25.4261 11.2733 24.9014 10.7662 24.9014 10.1406V8.54999C24.9014 8.33545 24.7726 8.13582 24.5733 8.04146L20.9883 6.34377C20.407 6.06858 20.1667 5.39004 20.4515 4.82828C20.7362 4.26646 21.4384 4.03415 22.0194 4.30945L25.6044 6.00708C26.6011 6.47896 27.2452 7.47715 27.2452 8.54999V10.1406C27.2452 10.7662 26.7205 11.2733 26.0733 11.2733Z" fill="white"/>
</svg>
