<svg width="30" height="23" viewBox="0 0 30 23" fill="none" xmlns="http://www.w3.org/2000/svg">
<path d="M4.39453 22.8516H25.6055C28.0286 22.8516 30 20.8802 30 18.457C30 17.9716 29.6065 17.5781 29.1211 17.5781H28.2422V0.878906C28.2422 0.393516 27.8487 0 27.3633 0H2.63672C2.15133 0 1.75781 0.393516 1.75781 0.878906V17.5781H0.878906C0.393516 17.5781 0 17.9716 0 18.457C0 20.8802 1.97139 22.8516 4.39453 22.8516ZM25.6055 21.0937H4.39453C3.24867 21.0937 2.27115 20.359 1.9084 19.3354H28.0916C27.7288 20.359 26.7514 21.0937 25.6055 21.0937ZM3.51562 1.75781H26.4844V17.5781H3.51562V1.75781Z" fill="white"/>
<path d="M22.2444 3.54137C22.1638 3.52122 20.2509 3.05422 18.3025 3.54137C16.9835 3.87114 15.6955 4.62834 15 5.08385C14.3045 4.62834 13.0165 3.87108 11.6975 3.54137C9.749 3.05422 7.83603 3.52122 7.75558 3.54137C7.36429 3.63917 7.08978 3.99073 7.08978 4.39403V13.1831C7.08978 13.4537 7.21447 13.7093 7.42781 13.8758C7.64115 14.0424 7.91929 14.1014 8.18185 14.0357C8.19726 14.0319 9.76857 13.6602 11.2711 14.0357C12.8299 14.4255 14.457 15.6324 14.4726 15.644C14.6182 15.7534 14.8073 15.8196 14.9993 15.8198H14.9998H14.9999C14.9999 15.8198 15 15.8198 15.0001 15.8198H15.0006C15.1948 15.8196 15.3834 15.7521 15.5273 15.644C15.5435 15.6319 17.1612 14.4276 18.7287 14.0357C20.2404 13.6579 21.8044 14.0324 21.82 14.0363C22.082 14.1011 22.3593 14.042 22.5721 13.8758C22.7854 13.7093 22.9101 13.4537 22.9101 13.1831V4.39403C22.9101 3.99073 22.6356 3.63917 22.2444 3.54137ZM8.8476 12.1561V5.13629C9.44783 5.06481 10.3718 5.02186 11.2711 5.24668C12.3959 5.52788 13.5562 6.23458 14.121 6.61069V13.3401C13.4366 12.9574 12.5738 12.5496 11.6975 12.3305C10.7801 12.1011 9.78861 12.0638 8.8476 12.1561ZM21.1523 12.1561C20.4033 12.0826 19.358 12.0665 18.3024 12.3304C17.426 12.5495 16.5632 12.9574 15.8788 13.3401V6.61004C16.442 6.23422 17.5985 5.52928 18.7287 5.24668C19.6318 5.02092 20.5535 5.0637 21.1523 5.13547V12.1561Z" fill="white"/>
</svg>
