<svg width="33" height="33" viewBox="0 0 33 33" fill="none" xmlns="http://www.w3.org/2000/svg">
<path fill-rule="evenodd" clip-rule="evenodd" d="M18.0606 7.90625C17.4983 7.90625 16.9716 7.63125 16.6499 7.17063L15.4165 5.401C14.7098 4.38625 13.5506 3.78125 12.3145 3.78125C10.5916 3.78125 7.66288 3.78125 5.5 3.78125C3.41138 3.78125 1.71875 5.47388 1.71875 7.5625V25.4375C1.71875 26.4399 2.1175 27.4024 2.82563 28.1119C3.53513 28.82 4.49763 29.2188 5.5 29.2188H27.5C28.5024 29.2188 29.4649 28.82 30.1744 28.1119C30.8825 27.4024 31.2813 26.4399 31.2813 25.4375V11.6875C31.2813 10.6851 30.8825 9.72263 30.1744 9.01313C29.4649 8.305 28.5024 7.90625 27.5 7.90625H18.0606ZM18.0606 9.96875H27.5C27.9565 9.96875 28.3924 10.1503 28.7155 10.472C29.0373 10.7951 29.2188 11.231 29.2188 11.6875V25.4375C29.2188 25.894 29.0373 26.3299 28.7155 26.653C28.3924 26.9748 27.9565 27.1563 27.5 27.1563H5.5C5.0435 27.1563 4.60763 26.9748 4.2845 26.653C3.96275 26.3299 3.78125 25.894 3.78125 25.4375V7.5625C3.78125 6.61375 4.55125 5.84375 5.5 5.84375H12.3145C12.8769 5.84375 13.4035 6.11875 13.7253 6.57938L14.9586 8.349C15.6654 9.36375 16.8231 9.96875 18.0606 9.96875Z" fill="#3A3D3B"/>
<path fill-rule="evenodd" clip-rule="evenodd" d="M16.5 12.375C14.4128 12.375 12.7188 14.069 12.7188 16.1562C12.7188 18.2435 14.4128 19.9375 16.5 19.9375C18.5873 19.9375 20.2812 18.2435 20.2812 16.1562C20.2812 14.069 18.5873 12.375 16.5 12.375ZM16.5 14.4375C17.4488 14.4375 18.2188 15.2075 18.2188 16.1562C18.2188 17.105 17.4488 17.875 16.5 17.875C15.5512 17.875 14.7812 17.105 14.7812 16.1562C14.7812 15.2075 15.5512 14.4375 16.5 14.4375Z" fill="#3A3D3B"/>
<path fill-rule="evenodd" clip-rule="evenodd" d="M11.7289 24.4475C11.7289 24.4475 12.4081 23.7696 12.987 23.1907C13.3088 22.869 13.746 22.6875 14.2011 22.6875H18.7991C19.2543 22.6875 19.6915 22.869 20.0133 23.1907C20.5921 23.7696 21.2714 24.4475 21.2714 24.4475C21.6729 24.8504 22.3274 24.8504 22.7289 24.4475C23.1318 24.046 23.1318 23.3915 22.7289 22.99C22.7289 22.99 22.051 22.3108 21.4721 21.7319C20.7626 21.0238 19.8015 20.625 18.7991 20.625C17.5245 20.625 15.4758 20.625 14.2011 20.625C13.1988 20.625 12.2376 21.0238 11.5281 21.7319C10.9493 22.3108 10.2714 22.99 10.2714 22.99C9.86852 23.3915 9.86852 24.046 10.2714 24.4475C10.6729 24.8504 11.3274 24.8504 11.7289 24.4475Z" fill="#3A3D3B"/>
</svg>
