<svg width="30" height="30" viewBox="0 0 30 30" fill="none" xmlns="http://www.w3.org/2000/svg">
<path d="M22.5088 11.5078H15.29C14.7263 11.5078 14.2588 11.0403 14.2588 10.4766C14.2588 9.91281 14.7263 9.44531 15.29 9.44531H22.5088C23.0725 9.44531 23.54 9.91281 23.54 10.4766C23.54 11.0403 23.0863 11.5078 22.5088 11.5078Z" fill="#3A3D3B"/>
<path d="M8.07078 12.5552C7.80953 12.5552 7.54828 12.4589 7.34203 12.2527L6.31078 11.2214C5.91203 10.8227 5.91203 10.1627 6.31078 9.76391C6.70953 9.36516 7.36953 9.36516 7.76828 9.76391L8.07078 10.0664L10.4358 7.70141C10.8345 7.30266 11.4945 7.30266 11.8933 7.70141C12.2921 8.10016 12.2921 8.76016 11.8933 9.15891L8.79953 12.2527C8.60703 12.4452 8.34578 12.5552 8.07078 12.5552Z" fill="#3A3D3B"/>
<path d="M22.5088 21.1328H15.29C14.7263 21.1328 14.2588 20.6653 14.2588 20.1016C14.2588 19.5378 14.7263 19.0703 15.29 19.0703H22.5088C23.0725 19.0703 23.54 19.5378 23.54 20.1016C23.54 20.6653 23.0863 21.1328 22.5088 21.1328Z" fill="#3A3D3B"/>
<path d="M8.07078 22.1802C7.80953 22.1802 7.54828 22.0839 7.34203 21.8777L6.31078 20.8464C5.91203 20.4477 5.91203 19.7877 6.31078 19.3889C6.70953 18.9902 7.36953 18.9902 7.76828 19.3889L8.07078 19.6914L10.4358 17.3264C10.8345 16.9277 11.4945 16.9277 11.8933 17.3264C12.2921 17.7252 12.2921 18.3852 11.8933 18.7839L8.79953 21.8777C8.60703 22.0702 8.34578 22.1802 8.07078 22.1802Z" fill="#3A3D3B"/>
<path d="M18.9063 29.5625H10.6563C3.19 29.5625 0 26.3725 0 18.9063V10.6563C0 3.19 3.19 0 10.6563 0H18.9063C26.3725 0 29.5625 3.19 29.5625 10.6563V18.9063C29.5625 26.3725 26.3725 29.5625 18.9063 29.5625ZM10.6563 2.0625C4.3175 2.0625 2.0625 4.3175 2.0625 10.6563V18.9063C2.0625 25.245 4.3175 27.5 10.6563 27.5H18.9063C25.245 27.5 27.5 25.245 27.5 18.9063V10.6563C27.5 4.3175 25.245 2.0625 18.9063 2.0625H10.6563Z" fill="#3A3D3B"/>
</svg>
