<svg width="34" height="34" viewBox="0 0 34 34" fill="none" xmlns="http://www.w3.org/2000/svg">
<g clip-path="url(#clip0_5521_22247)">
<path d="M32.6804 0H0.986331C0.441613 0 0 0.441613 0 0.986331V24.724C0 25.2688 0.441613 25.7104 0.986331 25.7104H11.9017V28.7351C11.9017 30.3667 10.5743 31.6941 8.94274 31.6941C8.39802 31.6941 7.95641 32.1357 7.95641 32.6804C7.95641 33.2252 8.39802 33.6668 8.94274 33.6668H24.724C25.2688 33.6668 25.7104 33.2252 25.7104 32.6804C25.7104 32.1357 25.2688 31.6941 24.724 31.6941C23.0925 31.6941 21.765 30.3667 21.765 28.7351V25.7104H32.6804C33.2252 25.7104 33.6668 25.2688 33.6668 24.724V0.986331C33.6668 0.441613 33.2252 0 32.6804 0ZM20.781 31.6941H12.8858C13.5062 30.8693 13.8744 29.8443 13.8744 28.7351V25.7104H19.7924V28.7351C19.7924 29.8443 20.1606 30.8693 20.781 31.6941ZM31.6941 23.7377H1.97266V1.97266H31.6941V23.7377Z" fill="#3A3D3B"/>
<path d="M5.87832 11.1193C6.07092 11.3119 6.32336 11.4083 6.57573 11.4083C6.82809 11.4083 7.0806 11.312 7.27313 11.1193L10.2321 8.16033C10.6173 7.77513 10.6173 7.15065 10.2321 6.76546C9.84699 6.38026 9.22245 6.38026 8.83725 6.76546L6.57573 9.02705L5.79363 8.24502C5.4085 7.85983 4.78396 7.85983 4.39876 8.24502C4.01356 8.63022 4.01356 9.2547 4.39876 9.63989L5.87832 11.1193Z" fill="#3A3D3B"/>
<path d="M12.8882 11.9024H28.7352C29.28 11.9024 29.7216 11.4607 29.7216 10.916C29.7216 10.3713 29.28 9.92969 28.7352 9.92969H12.8882C12.3435 9.92969 11.9019 10.3713 11.9019 10.916C11.9019 11.4607 12.3435 11.9024 12.8882 11.9024Z" fill="#3A3D3B"/>
<path d="M12.8882 19.793H28.7352C29.28 19.793 29.7216 19.3514 29.7216 18.8066C29.7216 18.2619 29.28 17.8203 28.7352 17.8203H12.8882C12.3435 17.8203 11.9019 18.2619 11.9019 18.8066C11.9019 19.3514 12.3435 19.793 12.8882 19.793Z" fill="#3A3D3B"/>
<path d="M12.8882 15.8477H22.7515C23.2962 15.8477 23.7378 15.406 23.7378 14.8613C23.7378 14.3166 23.2962 13.875 22.7515 13.875H12.8882C12.3435 13.875 11.9019 14.3166 11.9019 14.8613C11.9019 15.406 12.3435 15.8477 12.8882 15.8477Z" fill="#3A3D3B"/>
<path d="M12.8882 7.95704H22.7515C23.2962 7.95704 23.7378 7.51542 23.7378 6.97071C23.7378 6.42599 23.2962 5.98438 22.7515 5.98438H12.8882C12.3435 5.98438 11.9019 6.42599 11.9019 6.97071C11.9019 7.51542 12.3435 7.95704 12.8882 7.95704Z" fill="#3A3D3B"/>
<path d="M4.99756 19.793H8.94289C9.4876 19.793 9.92922 19.3514 9.92922 18.8067V14.8613C9.92922 14.3166 9.4876 13.875 8.94289 13.875H4.99756C4.45284 13.875 4.01123 14.3166 4.01123 14.8613V18.8067C4.01123 19.3514 4.45284 19.793 4.99756 19.793ZM5.98389 15.8477H7.95656V17.8203H5.98389V15.8477Z" fill="#3A3D3B"/>
</g>
<defs>
<clipPath id="clip0_5521_22247">
<rect width="33.6668" height="33.6668" fill="white"/>
</clipPath>
</defs>
</svg>
