<svg width="33" height="33" viewBox="0 0 33 33" fill="none" xmlns="http://www.w3.org/2000/svg">
<path d="M32.9451 18.6989L30.4401 4.49239C30.0997 2.5622 28.2521 1.26866 26.3223 1.60906L4.8377 5.39745C2.90744 5.73778 1.61397 7.58499 1.9543 9.51519L2.13836 10.5592C0.881274 11.1076 0 12.3618 0 13.8187V27.8894C0 29.8494 1.59458 31.444 3.55457 31.444H24.882C26.8419 31.444 28.4365 29.8494 28.4365 27.8894V23.1032L30.0617 22.8166C30.9967 22.6518 31.8115 22.1327 32.3562 21.3549C32.9008 20.5771 33.1099 19.6338 32.9451 18.6989ZM30.768 20.2428C30.5205 20.5963 30.15 20.8323 29.725 20.9072L28.4365 21.1344V20.0294V15.6314V13.8186C28.4365 11.8586 26.8419 10.264 24.882 10.264H4.05518L3.86375 9.17847C3.78878 8.75348 3.88391 8.32473 4.13144 7.97115C4.37897 7.61763 4.74942 7.38167 5.17441 7.3067L26.659 3.51838C26.7535 3.5017 26.8475 3.49369 26.9404 3.49369C27.7092 3.49369 28.3928 4.04613 28.5308 4.82898L31.0357 19.0355C31.1106 19.4605 31.0155 19.8893 30.768 20.2428ZM24.882 29.5052H3.55457C2.66366 29.5052 1.93885 28.7803 1.93885 27.8894V20.9988H26.4977V27.8894C26.4977 28.7803 25.7729 29.5052 24.882 29.5052ZM3.55457 12.203H24.882C25.7729 12.203 26.4977 12.9278 26.4977 13.8187V14.6621H1.93885V13.8187C1.93885 12.9278 2.66366 12.203 3.55457 12.203ZM26.4977 16.6009V19.06H1.93885V16.6009H26.4977Z" fill="#3A3D3B"/>
<path d="M9.32931 25.6133H4.93134C4.39596 25.6133 3.96191 26.0473 3.96191 26.5827C3.96191 27.1181 4.39596 27.5521 4.93134 27.5521H9.32931C9.86469 27.5521 10.2987 27.1181 10.2987 26.5827C10.2987 26.0473 9.86469 25.6133 9.32931 25.6133Z" fill="#3A3D3B"/>
</svg>
