<svg width="28" height="28" viewBox="0 0 28 28" fill="none" xmlns="http://www.w3.org/2000/svg">
<path d="M20.1178 19.1005V16.3509C20.1178 15.8961 19.7492 15.5273 19.2942 15.5273C18.8393 15.5273 18.4707 15.8961 18.4707 16.3509V19.4147C18.4707 19.6172 18.5452 19.8125 18.68 19.9634L20.309 21.787C20.4716 21.969 20.6969 22.0619 20.9233 22.0619C21.1187 22.0619 21.3145 21.9929 21.4716 21.8525C21.8109 21.5496 21.8401 21.029 21.5372 20.6897L20.1176 19.1006L20.1178 19.1005Z" fill="#1E73B9"/>
<path d="M25.5476 14.6423V7.66586C25.5476 5.41483 23.7172 3.5833 21.4673 3.5833H20.2536V1.87431C20.2536 1.41956 19.885 1.05078 19.4301 1.05078C18.9751 1.05078 18.6065 1.41956 18.6065 1.87431V3.5833H7.76509V1.87431C7.76509 1.41956 7.39648 1.05078 6.94157 1.05078C6.48665 1.05078 6.11804 1.41956 6.11804 1.87431V3.5833H4.90399C2.65411 3.5833 0.82373 5.41483 0.82373 7.66586V21.2401C0.82373 23.4911 2.65411 25.3227 4.90399 25.3227H14.8694C16.1639 26.3414 17.7945 26.9514 19.5659 26.9514C23.7625 26.9514 27.1767 23.5369 27.1767 19.3399C27.1767 17.5681 26.5666 15.9372 25.5477 14.6425L25.5476 14.6423ZM2.47062 21.2399V7.66586C2.47062 6.32285 3.56213 5.23036 4.90382 5.23036H6.11787V7.4809C6.11787 7.93565 6.48648 8.30443 6.9414 8.30443C7.39632 8.30443 7.76493 7.93565 7.76493 7.4809V5.23036H18.6064V7.4809C18.6064 7.93565 18.975 8.30443 19.4299 8.30443C19.8848 8.30443 20.2534 7.93565 20.2534 7.4809V5.23036H21.4671C22.8088 5.23036 23.9003 6.32285 23.9003 7.66586V13.0886C22.6693 12.2322 21.1756 11.7282 19.5656 11.7282C15.3691 11.7282 11.9547 15.1427 11.9547 19.3397C11.9547 20.9501 12.4587 22.4443 13.3154 23.6756H4.90382C3.56213 23.6756 2.47062 22.5829 2.47062 21.2399ZM19.5658 25.3042C16.2773 25.3042 13.6019 22.6286 13.6019 19.3397C13.6019 16.0509 16.2773 13.3752 19.5658 13.3752C22.8543 13.3752 25.5294 16.0509 25.5294 19.3397C25.5294 22.6286 22.8541 25.3042 19.5658 25.3042Z" fill="#1E73B9"/>
</svg>
