<svg width="25" height="25" viewBox="0 0 25 25" fill="none" xmlns="http://www.w3.org/2000/svg">
<path d="M18.7807 16.9244L23.2422 21.2857L21.7682 22.7269L17.3078 18.3646C15.6482 19.6655 13.5838 20.373 11.4568 20.3701C6.28176 20.3701 2.08176 16.2634 2.08176 11.2034C2.08176 6.14341 6.28176 2.03674 11.4568 2.03674C16.6318 2.03674 20.8318 6.14341 20.8318 11.2034C20.8348 13.2832 20.1112 15.3017 18.7807 16.9244ZM16.6911 16.1687C18.0131 14.8394 18.7514 13.0575 18.7484 11.2034C18.7484 7.2648 15.4849 4.07378 11.4568 4.07378C7.42864 4.07378 4.1651 7.2648 4.1651 11.2034C4.1651 15.142 7.42864 18.333 11.4568 18.333C13.353 18.336 15.1754 17.6141 16.5349 16.3215L16.6911 16.1687Z" fill="#163D6C"/>
</svg>
