<svg width="31" height="31" viewBox="0 0 31 31" fill="none" xmlns="http://www.w3.org/2000/svg">
<path d="M20.7998 12.2742C20.7998 11.7928 20.4094 11.4023 19.9279 11.4023H9.13506C8.65359 11.4023 8.26318 11.7928 8.26318 12.2742C8.26318 12.7557 8.65359 13.1461 9.13506 13.1461H19.9269C20.4084 13.1461 20.7998 12.7557 20.7998 12.2742Z" fill="#1E73B9"/>
<path d="M17.3647 8.97422C17.8462 8.97422 18.2366 8.58381 18.2366 8.10234C18.2366 7.62087 17.8462 7.23047 17.3647 7.23047H11.6976C11.2161 7.23047 10.8257 7.62087 10.8257 8.10234C10.8257 8.58381 11.2161 8.97422 11.6976 8.97422H17.3647Z" fill="#1E73B9"/>
<path d="M17.8539 21.9034H4.30105C3.47859 21.9034 2.80918 21.235 2.80918 20.4125V6.50125C2.80918 5.67878 3.47859 5.00937 4.30105 5.00937H24.7611C25.5845 5.00937 26.2529 5.67878 26.2529 6.50125V11.6259C26.2529 12.1074 26.6433 12.4978 27.1248 12.4978C27.6063 12.4978 27.9967 12.1074 27.9967 11.6259V6.50125C27.9967 4.71681 26.5445 3.26562 24.7601 3.26562H4.30105C2.51662 3.26562 1.06543 4.71681 1.06543 6.50125V20.4125C1.06543 22.1969 2.51662 23.6481 4.30105 23.6481H17.8539C18.3353 23.6481 18.7257 23.2577 18.7257 22.7762C18.7257 22.2948 18.3353 21.9034 17.8539 21.9034Z" fill="#1E73B9"/>
<path d="M6.5291 17.6094C6.04763 17.6094 5.65723 17.9998 5.65723 18.4812C5.65723 18.9627 6.04763 19.3531 6.5291 19.3531H9.45473C9.93619 19.3531 10.3266 18.9627 10.3266 18.4812C10.3266 17.9998 9.93619 17.6094 9.45473 17.6094H6.5291Z" fill="#1E73B9"/>
<path d="M29.9341 19.0181C29.9341 16.1157 27.5723 13.7539 24.669 13.7539C21.7656 13.7539 19.4038 16.1157 19.4038 19.0181C19.4038 20.8161 20.3115 22.4058 21.692 23.3562V26.8621C21.692 27.1246 21.8102 27.3716 22.0127 27.5373C22.1696 27.6652 22.3643 27.7339 22.5639 27.7339C22.622 27.7339 22.6801 27.7272 22.7392 27.7155L24.669 27.3212L26.5977 27.7155C26.8545 27.7659 27.1199 27.701 27.3243 27.5363C27.5268 27.3707 27.645 27.1227 27.645 26.8611V23.3552C29.0264 22.4048 29.9341 20.8161 29.9341 19.0181ZM25.9022 25.7935L24.8453 25.5765C24.73 25.5542 24.6108 25.5542 24.4956 25.5765L23.4377 25.7935V24.1312C23.8339 24.2271 24.2447 24.2823 24.669 24.2823C25.0942 24.2823 25.505 24.2261 25.9012 24.1302V25.7935H25.9022ZM24.6699 22.5385C22.7286 22.5385 21.1495 20.9595 21.1495 19.0181C21.1495 17.0767 22.7286 15.4977 24.6699 15.4977C26.6113 15.4977 28.1904 17.0767 28.1904 19.0181C28.1904 20.9595 26.6113 22.5385 24.6699 22.5385Z" fill="#1E73B9"/>
</svg>
